<svg width="409" height="172" viewBox="0 0 409 172" fill="none" xmlns="http://www.w3.org/2000/svg">
<path d="M27.5 85.2C22.4333 85.2 18.2 84.3 14.8 82.5C11.4 80.7 8.83333 77.9333 7.1 74.2C5.36667 70.4 4.4 65.5 4.2 59.5L19.5 57.2C19.5667 60.6667 19.8667 63.4667 20.4 65.6C21 67.7333 21.8 69.2667 22.8 70.2C23.8667 71.1333 25.1333 71.6 26.6 71.6C28.4667 71.6 29.6667 70.9667 30.2 69.7C30.8 68.4333 31.1 67.1 31.1 65.7C31.1 62.3667 30.3 59.5667 28.7 57.3C27.1 54.9667 24.9333 52.6333 22.2 50.3L15.2 44.2C12.1333 41.6 9.53333 38.6667 7.4 35.4C5.33333 32.0667 4.3 27.9667 4.3 23.1C4.3 16.2333 6.33333 11 10.4 7.4C14.4667 3.73333 20 1.9 27 1.9C31.3333 1.9 34.8 2.63333 37.4 4.1C40.0667 5.56667 42.0667 7.5 43.4 9.89999C44.8 12.2333 45.7333 14.7333 46.2 17.4C46.7333 20 47.0333 22.5 47.1 24.9L31.7 26.8C31.6333 24.4 31.4667 22.3333 31.2 20.6C31 18.8 30.5333 17.4333 29.8 16.5C29.0667 15.5 27.9333 15 26.4 15C24.7333 15 23.5 15.7 22.7 17.1C21.9667 18.5 21.6 19.9 21.6 21.3C21.6 24.3 22.3 26.7667 23.7 28.7C25.1667 30.5667 27.0667 32.5333 29.4 34.6L36.1 40.5C39.6333 43.5 42.6 46.9 45 50.7C47.4667 54.5 48.7 59.2 48.7 64.8C48.7 68.6 47.8333 72.0667 46.1 75.2C44.3667 78.2667 41.9 80.7 38.7 82.5C35.5667 84.3 31.8333 85.2 27.5 85.2ZM72.3672 84.6C68.0339 84.6 64.6672 83.9667 62.2672 82.7C59.9339 81.4333 58.3339 79.6 57.4672 77.2C56.6005 74.7333 56.1672 71.7667 56.1672 68.3V36.9H50.5672V26.2H56.1672V8.6H72.6672V26.2H80.8672V36.9H72.6672V66.7C72.6672 68.3667 73.1339 69.5667 74.0672 70.3C75.0672 71.0333 76.3005 71.4 77.7672 71.4C78.6339 71.4 79.4339 71.3667 80.1672 71.3C80.9005 71.1667 81.5672 71.0667 82.1672 71V83.8C81.3005 83.9333 79.9339 84.1 78.0672 84.3C76.2005 84.5 74.3005 84.6 72.3672 84.6ZM88.0188 84V26.2H104.319V35.8C106.185 32.4667 108.052 29.9333 109.919 28.2C111.785 26.4 114.052 25.5 116.719 25.5C117.252 25.5 117.719 25.5333 118.119 25.6C118.519 25.6 118.885 25.6667 119.219 25.8V42C118.485 41.6667 117.652 41.4 116.719 41.2C115.852 40.9333 114.919 40.8 113.919 40.8C112.052 40.8 110.319 41.3 108.719 42.3C107.119 43.3 105.652 44.6667 104.319 46.4V84H88.0188ZM143 85C138.8 85 135.2 84.2667 132.2 82.8C129.2 81.2667 126.9 79.0667 125.3 76.2C123.7 73.2667 122.9 69.7667 122.9 65.7V44.5C122.9 40.3667 123.7 36.8667 125.3 34C126.9 31.1333 129.2 28.9667 132.2 27.5C135.267 25.9667 138.867 25.2 143 25.2C147.267 25.2 150.8 25.9333 153.6 27.4C156.467 28.8667 158.6 31.0333 160 33.9C161.467 36.7667 162.2 40.3 162.2 44.5V56.1H139V67.2C139 68.6667 139.167 69.8667 139.5 70.8C139.833 71.7333 140.3 72.4 140.9 72.8C141.5 73.2 142.2 73.4 143 73.4C143.8 73.4 144.5 73.2333 145.1 72.9C145.767 72.5 146.267 71.9 146.6 71.1C147 70.3 147.2 69.2 147.2 67.8V61.7H162.2V67.3C162.2 73.1667 160.5 77.6 157.1 80.6C153.7 83.5333 149 85 143 85ZM139 48.5H147.2V42.7C147.2 41.1667 147 39.9667 146.6 39.1C146.267 38.2333 145.767 37.6333 145.1 37.3C144.5 36.9667 143.767 36.8 142.9 36.8C142.1 36.8 141.4 37 140.8 37.4C140.267 37.8 139.833 38.5 139.5 39.5C139.167 40.4333 139 41.8 139 43.6V48.5ZM180.973 85C178.039 85 175.573 84.3 173.573 82.9C171.573 81.5 170.073 79.7333 169.073 77.6C168.073 75.4 167.573 73.1667 167.573 70.9C167.573 67.3 168.273 64.2667 169.673 61.8C171.139 59.3333 173.039 57.2667 175.373 55.6C177.706 53.9333 180.273 52.5333 183.073 51.4C185.873 50.2 188.639 49.1333 191.373 48.2V42.4C191.373 41.4 191.273 40.5333 191.073 39.8C190.873 39 190.539 38.4 190.073 38C189.606 37.5333 188.906 37.3 187.973 37.3C187.039 37.3 186.306 37.5 185.773 37.9C185.306 38.3 184.973 38.8667 184.773 39.6C184.573 40.2667 184.439 41.0333 184.373 41.9L183.973 46.1L168.773 45.5C169.106 38.5667 170.939 33.4667 174.273 30.2C177.673 26.8667 182.739 25.2 189.473 25.2C195.339 25.2 199.706 26.8333 202.573 30.1C205.506 33.3 206.973 37.4667 206.973 42.6V69.6C206.973 72 207.006 74.1 207.073 75.9C207.206 77.7 207.339 79.2667 207.473 80.6C207.673 81.9333 207.839 83.0667 207.973 84H193.373C193.173 82.4667 192.939 80.8 192.673 79C192.406 77.2 192.206 76.1333 192.073 75.8C191.406 78.2 190.139 80.3333 188.273 82.2C186.473 84.0667 184.039 85 180.973 85ZM186.773 74C187.439 74 188.039 73.8667 188.573 73.6C189.173 73.3333 189.706 72.9667 190.173 72.5C190.639 72.0333 191.039 71.5667 191.373 71.1V55.3C190.039 56.1 188.806 56.9333 187.673 57.8C186.539 58.6 185.573 59.5 184.773 60.5C183.973 61.5 183.339 62.6 182.873 63.8C182.473 64.9333 182.273 66.2333 182.273 67.7C182.273 69.6333 182.673 71.1667 183.473 72.3C184.273 73.4333 185.373 74 186.773 74ZM214.631 84V26.2H230.631V30.8C232.765 28.7333 234.965 27.2667 237.231 26.4C239.565 25.5333 241.931 25.1 244.331 25.1C246.665 25.1 248.665 25.7 250.331 26.9C252.065 28.0333 253.365 29.7333 254.231 32C256.498 29.4667 258.865 27.7 261.331 26.7C263.865 25.6333 266.398 25.1 268.931 25.1C271.198 25.1 273.165 25.6667 274.831 26.8C276.498 27.8667 277.798 29.4667 278.731 31.6C279.665 33.6667 280.131 36.1667 280.131 39.1V84H264.131V40.8C264.131 39.2 263.831 38.0667 263.231 37.4C262.698 36.6667 261.865 36.3 260.731 36.3C260.065 36.3 259.231 36.5 258.231 36.9C257.231 37.2333 256.265 37.7333 255.331 38.4C255.331 38.5333 255.331 38.6667 255.331 38.8C255.331 38.8667 255.331 38.9667 255.331 39.1V84H239.531V40.8C239.531 39.2 239.231 38.0667 238.631 37.4C238.031 36.6667 237.165 36.3 236.031 36.3C235.298 36.3 234.431 36.5 233.431 36.9C232.498 37.2333 231.565 37.7333 230.631 38.4V84H214.631ZM288.024 84V26.2H304.324V84H288.024ZM287.924 16.4V5.1H304.324V16.4H287.924ZM312.389 84V26.2H328.689V32C330.822 29.8667 333.022 28.2 335.289 27C337.622 25.8 340.056 25.2 342.589 25.2C344.989 25.2 346.956 25.8 348.489 27C350.089 28.1333 351.289 29.7333 352.089 31.8C352.889 33.8 353.289 36.1 353.289 38.7V84H337.089V41C337.089 39.6 336.856 38.5333 336.389 37.8C335.922 37.0667 335.056 36.7 333.789 36.7C333.122 36.7 332.322 36.9 331.389 37.3C330.522 37.6333 329.622 38.1333 328.689 38.8V84H312.389ZM379.873 104C375.539 104 371.773 103.567 368.573 102.7C365.373 101.833 362.873 100.533 361.073 98.8C359.339 97.0667 358.473 94.8667 358.473 92.2C358.473 90.4 358.839 88.7667 359.573 87.3C360.373 85.9 361.439 84.6667 362.773 83.6C364.173 82.4667 365.739 81.5 367.473 80.7C364.939 79.9667 362.973 78.8667 361.573 77.4C360.173 75.9333 359.473 73.9667 359.473 71.5C359.473 69.1667 360.039 67.1667 361.173 65.5C362.306 63.7667 363.873 62.0333 365.873 60.3C364.006 58.6333 362.573 56.6 361.573 54.2C360.639 51.7333 360.173 48.7667 360.173 45.3C360.173 40.9667 360.973 37.3 362.573 34.3C364.173 31.3 366.506 29.0333 369.573 27.5C372.706 25.9667 376.473 25.2 380.873 25.2C383.873 25.2 386.506 25.5667 388.773 26.3C391.039 27.0333 392.973 28.1667 394.573 29.7C395.306 28.5667 396.273 27.4667 397.473 26.4C398.673 25.3333 400.039 24.4333 401.573 23.7L403.673 22.7L407.473 30.5C406.873 30.7 406.039 31.0333 404.973 31.5C403.906 31.9667 402.773 32.4667 401.573 33C400.439 33.5333 399.406 34.0667 398.473 34.6C399.206 36.0667 399.773 37.7333 400.173 39.6C400.573 41.4667 400.773 43.4 400.773 45.4C400.773 49.5333 400.006 53.1 398.473 56.1C397.006 59.1 394.806 61.4 391.873 63C388.939 64.5333 385.273 65.3 380.873 65.3C379.006 65.3 377.239 65.1667 375.573 64.9C373.906 64.5667 372.373 64.1667 370.973 63.7C370.573 64.2333 370.206 64.8 369.873 65.4C369.606 65.9333 369.473 66.5333 369.473 67.2C369.473 68 369.873 68.6333 370.673 69.1C371.473 69.5667 372.906 69.9333 374.973 70.2L390.173 71.9C395.106 72.4333 398.739 74.0333 401.073 76.7C403.406 79.3 404.573 82.7333 404.573 87C404.573 90.6667 403.739 93.7667 402.073 96.3C400.473 98.8333 397.839 100.733 394.173 102C390.573 103.333 385.806 104 379.873 104ZM381.973 92.2C385.639 92.2 388.439 91.9 390.373 91.3C392.373 90.7 393.373 89.4667 393.373 87.6C393.373 86.6667 393.106 85.9 392.573 85.3C392.039 84.7667 391.139 84.3333 389.873 84C388.673 83.6 386.939 83.3 384.673 83.1L373.973 82C373.306 82.4667 372.706 83 372.173 83.6C371.706 84.1333 371.306 84.7 370.973 85.3C370.706 85.9667 370.573 86.6667 370.573 87.4C370.573 89 371.439 90.2 373.173 91C374.906 91.8 377.839 92.2 381.973 92.2ZM380.873 55.6C381.806 55.6 382.573 55.4333 383.173 55.1C383.773 54.7 384.206 54.1 384.473 53.3C384.806 52.5 385.039 51.4333 385.173 50.1C385.306 48.7667 385.373 47.1667 385.373 45.3C385.373 43.3667 385.306 41.7667 385.173 40.5C385.039 39.1667 384.806 38.1 384.473 37.3C384.206 36.4333 383.773 35.8333 383.173 35.5C382.573 35.1 381.806 34.9 380.873 34.9C379.939 34.9 379.173 35.1 378.573 35.5C377.973 35.8333 377.506 36.4 377.173 37.2C376.906 38 376.706 39.0667 376.573 40.4C376.439 41.7333 376.373 43.3667 376.373 45.3C376.373 47.1667 376.439 48.7667 376.573 50.1C376.706 51.3667 376.906 52.4333 377.173 53.3C377.506 54.1 377.973 54.7 378.573 55.1C379.173 55.4333 379.939 55.6 380.873 55.6Z" fill="url(#paint0_linear_117_18)"/>
<path d="M1.3 170.1V157.6C3.1 157.6 4.63333 157.5 5.9 157.3C7.16667 157.1 8.16667 156.733 8.9 156.2C9.63333 155.6 10.1667 154.767 10.5 153.7C10.8333 152.567 11 151.133 11 149.4V87H28.9V150.2C28.9 154.6 28.3333 158.3 27.2 161.3C26.1333 164.233 24.2333 166.433 21.5 167.9C18.7667 169.367 14.9333 170.1 10 170.1H1.3ZM49.8633 169C46.9299 169 44.4633 168.3 42.4633 166.9C40.4633 165.5 38.9633 163.733 37.9633 161.6C36.9633 159.4 36.4633 157.167 36.4633 154.9C36.4633 151.3 37.1633 148.267 38.5633 145.8C40.0299 143.333 41.9299 141.267 44.2633 139.6C46.5966 137.933 49.1633 136.533 51.9633 135.4C54.7633 134.2 57.5299 133.133 60.2633 132.2V126.4C60.2633 125.4 60.1633 124.533 59.9633 123.8C59.7633 123 59.4299 122.4 58.9633 122C58.4966 121.533 57.7966 121.3 56.8633 121.3C55.9299 121.3 55.1966 121.5 54.6633 121.9C54.1966 122.3 53.8633 122.867 53.6633 123.6C53.4633 124.267 53.3299 125.033 53.2633 125.9L52.8633 130.1L37.6633 129.5C37.9966 122.567 39.8299 117.467 43.1633 114.2C46.5633 110.867 51.6299 109.2 58.3633 109.2C64.23 109.2 68.5966 110.833 71.4633 114.1C74.3966 117.3 75.8633 121.467 75.8633 126.6V153.6C75.8633 156 75.8966 158.1 75.9633 159.9C76.0966 161.7 76.23 163.267 76.3633 164.6C76.5633 165.933 76.73 167.067 76.8633 168H62.2633C62.0633 166.467 61.8299 164.8 61.5633 163C61.2966 161.2 61.0966 160.133 60.9633 159.8C60.2966 162.2 59.03 164.333 57.1633 166.2C55.3633 168.067 52.9299 169 49.8633 169ZM55.6633 158C56.3299 158 56.9299 157.867 57.4633 157.6C58.0633 157.333 58.5966 156.967 59.0633 156.5C59.53 156.033 59.93 155.567 60.2633 155.1V139.3C58.9299 140.1 57.6966 140.933 56.5633 141.8C55.4299 142.6 54.4633 143.5 53.6633 144.5C52.8633 145.5 52.2299 146.6 51.7633 147.8C51.3633 148.933 51.1633 150.233 51.1633 151.7C51.1633 153.633 51.5633 155.167 52.3633 156.3C53.1633 157.433 54.2633 158 55.6633 158ZM81.9219 168V157.5L97.8219 122.1H83.1219V110.2H114.822V120.1L98.7219 156.1H115.022V168H81.9219ZM119.082 168V157.5L134.982 122.1H120.282V110.2H151.982V120.1L135.882 156.1H152.182V168H119.082ZM158.742 168V87H176.642V155.9H195.242V168H158.742ZM200.278 168V110.2H216.578V168H200.278ZM200.178 100.4V89.1H216.578V100.4H200.178ZM232.143 168L220.543 110.2H236.143L240.943 147.1L245.343 110.2H260.943L249.043 168H232.143ZM283.633 169C279.433 169 275.833 168.267 272.833 166.8C269.833 165.267 267.533 163.067 265.933 160.2C264.333 157.267 263.533 153.767 263.533 149.7V128.5C263.533 124.367 264.333 120.867 265.933 118C267.533 115.133 269.833 112.967 272.833 111.5C275.899 109.967 279.499 109.2 283.633 109.2C287.899 109.2 291.433 109.933 294.233 111.4C297.099 112.867 299.233 115.033 300.633 117.9C302.099 120.767 302.833 124.3 302.833 128.5V140.1H279.633V151.2C279.633 152.667 279.799 153.867 280.133 154.8C280.466 155.733 280.933 156.4 281.533 156.8C282.133 157.2 282.833 157.4 283.633 157.4C284.433 157.4 285.133 157.233 285.733 156.9C286.399 156.5 286.899 155.9 287.233 155.1C287.633 154.3 287.833 153.2 287.833 151.8V145.7H302.833V151.3C302.833 157.167 301.133 161.6 297.733 164.6C294.333 167.533 289.633 169 283.633 169ZM279.633 132.5H287.833V126.7C287.833 125.167 287.633 123.967 287.233 123.1C286.899 122.233 286.399 121.633 285.733 121.3C285.133 120.967 284.399 120.8 283.533 120.8C282.733 120.8 282.033 121 281.433 121.4C280.899 121.8 280.466 122.5 280.133 123.5C279.799 124.433 279.633 125.8 279.633 127.6V132.5Z" fill="url(#paint1_linear_117_18)"/>
<defs>
<linearGradient id="paint0_linear_117_18" x1="204.5" y1="0" x2="204.5" y2="113" gradientUnits="userSpaceOnUse">
<stop stop-color="#883AEA"/>
<stop offset="1" stop-color="white"/>
</linearGradient>
<linearGradient id="paint1_linear_117_18" x1="193" y1="49" x2="193" y2="172" gradientUnits="userSpaceOnUse">
<stop stop-color="#883AEA"/>
<stop offset="1" stop-color="white"/>
</linearGradient>
</defs>
</svg>
