<svg viewBox="0 0 1406 205" fill="none" xmlns="http://www.w3.org/2000/svg">
<path d="M47 167.4C36.8667 167.4 28.4 165.6 21.6 162C14.8 158.4 9.66667 152.867 6.2 145.4C2.73333 137.8 0.8 128 0.400001 116L31 111.4C31.1333 118.333 31.7333 123.933 32.8 128.2C34 132.467 35.6 135.533 37.6 137.4C39.7333 139.267 42.2667 140.2 45.2 140.2C48.9333 140.2 51.3333 138.933 52.4 136.4C53.6 133.867 54.2 131.2 54.2 128.4C54.2 121.733 52.6 116.133 49.4 111.6C46.2 106.933 41.8667 102.267 36.4 97.6L22.4 85.4C16.2667 80.2 11.0667 74.3333 6.8 67.8C2.66667 61.1333 0.6 52.9333 0.6 43.2C0.6 29.4667 4.66667 19 12.8 11.8C20.9333 4.46666 32 0.799992 46 0.799992C54.6667 0.799992 61.6 2.26666 66.8 5.2C72.1333 8.13333 76.1333 12 78.8 16.8C81.6 21.4667 83.4667 26.4667 84.4 31.8C85.4667 37 86.0667 42 86.2 46.8L55.4 50.6C55.2667 45.8 54.9333 41.6667 54.4 38.2C54 34.6 53.0667 31.8667 51.6 30C50.1333 28 47.8667 27 44.8 27C41.4667 27 39 28.4 37.4 31.2C35.9333 34 35.2 36.8 35.2 39.6C35.2 45.6 36.6 50.5333 39.4 54.4C42.3333 58.1333 46.1333 62.0667 50.8 66.2L64.2 78C71.2667 84 77.2 90.8 82 98.4C86.9333 106 89.4 115.4 89.4 126.6C89.4 134.2 87.6667 141.133 84.2 147.4C80.7333 153.533 75.8 158.4 69.4 162C63.1333 165.6 55.6667 167.4 47 167.4ZM136.734 166.2C128.068 166.2 121.334 164.933 116.534 162.4C111.868 159.867 108.668 156.2 106.934 151.4C105.201 146.467 104.334 140.533 104.334 133.6V70.8H93.1344V49.4H104.334V14.2H137.334V49.4H153.734V70.8H137.334V130.4C137.334 133.733 138.268 136.133 140.134 137.6C142.134 139.067 144.601 139.8 147.534 139.8C149.268 139.8 150.868 139.733 152.334 139.6C153.801 139.333 155.134 139.133 156.334 139V164.6C154.601 164.867 151.868 165.2 148.134 165.6C144.401 166 140.601 166.2 136.734 166.2ZM168.038 165V49.4H200.638V68.6C204.371 61.9333 208.104 56.8667 211.838 53.4C215.571 49.8 220.104 48 225.438 48C226.504 48 227.438 48.0667 228.238 48.2C229.038 48.2 229.771 48.3333 230.438 48.6V81C228.971 80.3333 227.304 79.8 225.438 79.4C223.704 78.8667 221.838 78.6 219.838 78.6C216.104 78.6 212.638 79.6 209.438 81.6C206.238 83.6 203.304 86.3333 200.638 89.8V165H168.038ZM278 167C269.6 167 262.4 165.533 256.4 162.6C250.4 159.533 245.8 155.133 242.6 149.4C239.4 143.533 237.8 136.533 237.8 128.4V86C237.8 77.7333 239.4 70.7333 242.6 65C245.8 59.2667 250.4 54.9333 256.4 52C262.533 48.9333 269.733 47.4 278 47.4C286.533 47.4 293.6 48.8667 299.2 51.8C304.933 54.7333 309.2 59.0667 312 64.8C314.933 70.5333 316.4 77.6 316.4 86V109.2H270V131.4C270 134.333 270.333 136.733 271 138.6C271.667 140.467 272.6 141.8 273.8 142.6C275 143.4 276.4 143.8 278 143.8C279.6 143.8 281 143.467 282.2 142.8C283.533 142 284.533 140.8 285.2 139.2C286 137.6 286.4 135.4 286.4 132.6V120.4H316.4V131.6C316.4 143.333 313 152.2 306.2 158.2C299.4 164.067 290 167 278 167ZM270 94H286.4V82.4C286.4 79.3333 286 76.9333 285.2 75.2C284.533 73.4667 283.533 72.2667 282.2 71.6C281 70.9333 279.533 70.6 277.8 70.6C276.2 70.6 274.8 71 273.6 71.8C272.533 72.6 271.667 74 271 76C270.333 77.8667 270 80.6 270 84.2V94ZM353.945 167C348.079 167 343.145 165.6 339.145 162.8C335.145 160 332.145 156.467 330.145 152.2C328.145 147.8 327.145 143.333 327.145 138.8C327.145 131.6 328.545 125.533 331.345 120.6C334.279 115.667 338.079 111.533 342.745 108.2C347.412 104.867 352.545 102.067 358.145 99.8C363.745 97.4 369.279 95.2667 374.745 93.4V81.8C374.745 79.8 374.545 78.0667 374.145 76.6C373.745 75 373.079 73.8 372.145 73C371.212 72.0667 369.812 71.6 367.945 71.6C366.079 71.6 364.612 72 363.545 72.8C362.612 73.6 361.945 74.7333 361.545 76.2C361.145 77.5333 360.879 79.0667 360.745 80.8L359.945 89.2L329.545 88C330.212 74.1333 333.879 63.9333 340.545 57.4C347.345 50.7333 357.479 47.4 370.945 47.4C382.679 47.4 391.412 50.6667 397.145 57.2C403.012 63.6 405.945 71.9333 405.945 82.2V136.2C405.945 141 406.012 145.2 406.145 148.8C406.412 152.4 406.679 155.533 406.945 158.2C407.345 160.867 407.679 163.133 407.945 165H378.745C378.345 161.933 377.879 158.6 377.345 155C376.812 151.4 376.412 149.267 376.145 148.6C374.812 153.4 372.279 157.667 368.545 161.4C364.945 165.133 360.079 167 353.945 167ZM365.545 145C366.879 145 368.079 144.733 369.145 144.2C370.345 143.667 371.412 142.933 372.345 142C373.279 141.067 374.079 140.133 374.745 139.2V107.6C372.079 109.2 369.612 110.867 367.345 112.6C365.079 114.2 363.145 116 361.545 118C359.945 120 358.679 122.2 357.745 124.6C356.945 126.867 356.545 129.467 356.545 132.4C356.545 136.267 357.345 139.333 358.945 141.6C360.545 143.867 362.745 145 365.545 145ZM421.263 165V49.4H453.263V58.6C457.529 54.4667 461.929 51.5333 466.463 49.8C471.129 48.0667 475.863 47.2 480.663 47.2C485.329 47.2 489.329 48.4 492.663 50.8C496.129 53.0667 498.729 56.4667 500.463 61C504.996 55.9333 509.729 52.4 514.663 50.4C519.729 48.2667 524.796 47.2 529.863 47.2C534.396 47.2 538.329 48.3333 541.663 50.6C544.996 52.7333 547.596 55.9333 549.463 60.2C551.329 64.3333 552.263 69.3333 552.263 75.2V165H520.263V78.6C520.263 75.4 519.663 73.1333 518.463 71.8C517.396 70.3333 515.729 69.6 513.463 69.6C512.129 69.6 510.463 70 508.463 70.8C506.463 71.4667 504.529 72.4667 502.663 73.8C502.663 74.0667 502.663 74.3333 502.663 74.6C502.663 74.7333 502.663 74.9333 502.663 75.2V165H471.063V78.6C471.063 75.4 470.463 73.1333 469.263 71.8C468.063 70.3333 466.329 69.6 464.063 69.6C462.596 69.6 460.863 70 458.863 70.8C456.996 71.4667 455.129 72.4667 453.263 73.8V165H421.263ZM568.048 165V49.4H600.648V165H568.048ZM567.848 29.8V7.19999H600.648V29.8H567.848ZM616.778 165V49.4H649.378V61C653.645 56.7333 658.045 53.4 662.578 51C667.245 48.6 672.111 47.4 677.178 47.4C681.978 47.4 685.911 48.6 688.978 51C692.178 53.2667 694.578 56.4667 696.178 60.6C697.778 64.6 698.578 69.2 698.578 74.4V165H666.178V79C666.178 76.2 665.711 74.0667 664.778 72.6C663.845 71.1333 662.111 70.4 659.578 70.4C658.245 70.4 656.645 70.8 654.778 71.6C653.045 72.2667 651.245 73.2667 649.378 74.6V165H616.778ZM751.745 205C743.079 205 735.545 204.133 729.145 202.4C722.745 200.667 717.745 198.067 714.145 194.6C710.679 191.133 708.945 186.733 708.945 181.4C708.945 177.8 709.679 174.533 711.145 171.6C712.745 168.8 714.879 166.333 717.545 164.2C720.345 161.933 723.479 160 726.945 158.4C721.879 156.933 717.945 154.733 715.145 151.8C712.345 148.867 710.945 144.933 710.945 140C710.945 135.333 712.079 131.333 714.345 128C716.612 124.533 719.745 121.067 723.745 117.6C720.012 114.267 717.145 110.2 715.145 105.4C713.279 100.467 712.345 94.5333 712.345 87.6C712.345 78.9333 713.945 71.6 717.145 65.6C720.345 59.6 725.012 55.0667 731.145 52C737.412 48.9333 744.945 47.4 753.745 47.4C759.745 47.4 765.012 48.1333 769.545 49.6C774.079 51.0667 777.945 53.3333 781.145 56.4C782.612 54.1333 784.545 51.9333 786.945 49.8C789.345 47.6667 792.079 45.8667 795.145 44.4L799.345 42.4L806.945 58C805.745 58.4 804.079 59.0667 801.945 60C799.812 60.9333 797.545 61.9333 795.145 63C792.879 64.0667 790.812 65.1333 788.945 66.2C790.412 69.1333 791.545 72.4667 792.345 76.2C793.145 79.9333 793.545 83.8 793.545 87.8C793.545 96.0667 792.012 103.2 788.945 109.2C786.012 115.2 781.612 119.8 775.745 123C769.879 126.067 762.545 127.6 753.745 127.6C750.012 127.6 746.479 127.333 743.145 126.8C739.812 126.133 736.745 125.333 733.945 124.4C733.145 125.467 732.412 126.6 731.745 127.8C731.212 128.867 730.945 130.067 730.945 131.4C730.945 133 731.745 134.267 733.345 135.2C734.945 136.133 737.812 136.867 741.945 137.4L772.345 140.8C782.212 141.867 789.479 145.067 794.145 150.4C798.812 155.6 801.145 162.467 801.145 171C801.145 178.333 799.479 184.533 796.145 189.6C792.945 194.667 787.679 198.467 780.345 201C773.145 203.667 763.612 205 751.745 205ZM755.945 181.4C763.279 181.4 768.879 180.8 772.745 179.6C776.745 178.4 778.745 175.933 778.745 172.2C778.745 170.333 778.212 168.8 777.145 167.6C776.079 166.533 774.279 165.667 771.745 165C769.345 164.2 765.879 163.6 761.345 163.2L739.945 161C738.612 161.933 737.412 163 736.345 164.2C735.412 165.267 734.612 166.4 733.945 167.6C733.412 168.933 733.145 170.333 733.145 171.8C733.145 175 734.879 177.4 738.345 179C741.812 180.6 747.679 181.4 755.945 181.4ZM753.745 108.2C755.612 108.2 757.145 107.867 758.345 107.2C759.545 106.4 760.412 105.2 760.945 103.6C761.612 102 762.079 99.8667 762.345 97.2C762.612 94.5333 762.745 91.3333 762.745 87.6C762.745 83.7333 762.612 80.5333 762.345 78C762.079 75.3333 761.612 73.2 760.945 71.6C760.412 69.8667 759.545 68.6667 758.345 68C757.145 67.2 755.612 66.8 753.745 66.8C751.879 66.8 750.345 67.2 749.145 68C747.945 68.6667 747.012 69.8 746.345 71.4C745.812 73 745.412 75.1333 745.145 77.8C744.879 80.4667 744.745 83.7333 744.745 87.6C744.745 91.3333 744.879 94.5333 745.145 97.2C745.412 99.7333 745.812 101.867 746.345 103.6C747.012 105.2 747.945 106.4 749.145 107.2C750.345 107.867 751.879 108.2 753.745 108.2ZM802.741 169.2V144.2C806.341 144.2 809.407 144 811.941 143.6C814.474 143.2 816.474 142.467 817.941 141.4C819.407 140.2 820.474 138.533 821.141 136.4C821.807 134.133 822.141 131.267 822.141 127.8V2.99999H857.941V129.4C857.941 138.2 856.807 145.6 854.541 151.6C852.407 157.467 848.607 161.867 843.141 164.8C837.674 167.733 830.007 169.2 820.141 169.2H802.741ZM899.867 167C894.001 167 889.067 165.6 885.067 162.8C881.067 160 878.067 156.467 876.067 152.2C874.067 147.8 873.067 143.333 873.067 138.8C873.067 131.6 874.467 125.533 877.267 120.6C880.201 115.667 884.001 111.533 888.667 108.2C893.334 104.867 898.467 102.067 904.067 99.8C909.667 97.4 915.201 95.2667 920.667 93.4V81.8C920.667 79.8 920.467 78.0667 920.067 76.6C919.667 75 919.001 73.8 918.067 73C917.134 72.0667 915.734 71.6 913.867 71.6C912.001 71.6 910.534 72 909.467 72.8C908.534 73.6 907.867 74.7333 907.467 76.2C907.067 77.5333 906.801 79.0667 906.667 80.8L905.867 89.2L875.467 88C876.134 74.1333 879.801 63.9333 886.467 57.4C893.267 50.7333 903.401 47.4 916.867 47.4C928.601 47.4 937.334 50.6667 943.067 57.2C948.934 63.6 951.867 71.9333 951.867 82.2V136.2C951.867 141 951.934 145.2 952.067 148.8C952.334 152.4 952.601 155.533 952.867 158.2C953.267 160.867 953.601 163.133 953.867 165H924.667C924.267 161.933 923.801 158.6 923.267 155C922.734 151.4 922.334 149.267 922.067 148.6C920.734 153.4 918.201 157.667 914.467 161.4C910.867 165.133 906.001 167 899.867 167ZM911.467 145C912.801 145 914.001 144.733 915.067 144.2C916.267 143.667 917.334 142.933 918.267 142C919.201 141.067 920.001 140.133 920.667 139.2V107.6C918.001 109.2 915.534 110.867 913.267 112.6C911.001 114.2 909.067 116 907.467 118C905.867 120 904.601 122.2 903.667 124.6C902.867 126.867 902.467 129.467 902.467 132.4C902.467 136.267 903.267 139.333 904.867 141.6C906.467 143.867 908.667 145 911.467 145ZM963.984 165V144L995.784 73.2H966.384V49.4H1029.78V69.2L997.584 141.2H1030.18V165H963.984ZM1038.3 165V144L1070.1 73.2H1040.7V49.4H1104.1V69.2L1071.9 141.2H1104.5V165H1038.3ZM1117.63 165V2.99999H1153.43V140.8H1190.63V165H1117.63ZM1200.7 165V49.4H1233.3V165H1200.7ZM1200.5 29.8V7.19999H1233.3V29.8H1200.5ZM1264.43 165L1241.23 49.4H1272.43L1282.03 123.2L1290.83 49.4H1322.03L1298.23 165H1264.43ZM1367.41 167C1359.01 167 1351.81 165.533 1345.81 162.6C1339.81 159.533 1335.21 155.133 1332.01 149.4C1328.81 143.533 1327.21 136.533 1327.21 128.4V86C1327.21 77.7333 1328.81 70.7333 1332.01 65C1335.21 59.2667 1339.81 54.9333 1345.81 52C1351.94 48.9333 1359.14 47.4 1367.41 47.4C1375.94 47.4 1383.01 48.8667 1388.61 51.8C1394.34 54.7333 1398.61 59.0667 1401.41 64.8C1404.34 70.5333 1405.81 77.6 1405.81 86V109.2H1359.41V131.4C1359.41 134.333 1359.74 136.733 1360.41 138.6C1361.07 140.467 1362.01 141.8 1363.21 142.6C1364.41 143.4 1365.81 143.8 1367.41 143.8C1369.01 143.8 1370.41 143.467 1371.61 142.8C1372.94 142 1373.94 140.8 1374.61 139.2C1375.41 137.6 1375.81 135.4 1375.81 132.6V120.4H1405.81V131.6C1405.81 143.333 1402.41 152.2 1395.61 158.2C1388.81 164.067 1379.41 167 1367.41 167ZM1359.41 94H1375.81V82.4C1375.81 79.3333 1375.41 76.9333 1374.61 75.2C1373.94 73.4667 1372.94 72.2667 1371.61 71.6C1370.41 70.9333 1368.94 70.6 1367.21 70.6C1365.61 70.6 1364.21 71 1363.01 71.8C1361.94 72.6 1361.07 74 1360.41 76C1359.74 77.8667 1359.41 80.6 1359.41 84.2V94Z" fill="url(#paint0_linear_115_11)"/>
<defs>
<linearGradient id="paint0_linear_115_11" x1="703" y1="0" x2="703" y2="223" gradientUnits="userSpaceOnUse">
<stop stop-color="#883AEA"/>
<stop offset="1" stop-color="white"/>
</linearGradient>
</defs>
</svg>
