<svg viewBox="0 0 576 167" fill="none" xmlns="http://www.w3.org/2000/svg">
<path d="M3.84 154.114V102.274H18.112C21.6107 102.274 24.64 102.658 27.2 103.426C29.76 104.194 31.744 105.581 33.152 107.586C34.6027 109.549 35.328 112.343 35.328 115.97C35.328 118.103 35.1573 120.002 34.816 121.666C34.4747 123.33 33.8347 124.781 32.896 126.018C32 127.213 30.6987 128.215 28.992 129.026L36.096 154.114H24.256L18.56 130.882H15.296V154.114H3.84ZM15.296 124.29H18.496C20.1173 124.29 21.376 124.013 22.272 123.458C23.168 122.861 23.7867 122.029 24.128 120.962C24.512 119.853 24.704 118.53 24.704 116.994C24.704 114.775 24.2987 113.047 23.488 111.81C22.6773 110.573 21.184 109.954 19.008 109.954H15.296V124.29ZM42.663 164.866V157.634C43.9857 157.634 45.0737 157.549 45.927 157.378C46.823 157.207 47.4843 156.887 47.911 156.418C48.3803 155.949 48.615 155.309 48.615 154.498C48.615 153.773 48.487 152.898 48.231 151.874C47.975 150.807 47.655 149.613 47.271 148.29L38.567 117.122H48.359L53.031 138.498L56.551 117.122H66.407L57.895 155.01C57.3403 157.57 56.4657 159.554 55.271 160.962C54.0763 162.413 52.6043 163.415 50.855 163.97C49.1483 164.567 47.207 164.866 45.031 164.866H42.663ZM82.4865 154.754C79.8412 154.754 77.5372 154.306 75.5745 153.41C73.6545 152.514 72.1612 151.17 71.0945 149.378C70.0705 147.586 69.5585 145.346 69.5585 142.658V128.578C69.5585 125.89 70.0705 123.65 71.0945 121.858C72.1612 120.066 73.6545 118.722 75.5745 117.826C77.5372 116.93 79.8412 116.482 82.4865 116.482C85.1318 116.482 87.4145 116.93 89.3345 117.826C91.2972 118.722 92.8118 120.066 93.8785 121.858C94.9452 123.65 95.4785 125.89 95.4785 128.578V142.658C95.4785 145.346 94.9452 147.586 93.8785 149.378C92.8118 151.17 91.2972 152.514 89.3345 153.41C87.4145 154.306 85.1318 154.754 82.4865 154.754ZM82.5505 147.842C83.2332 147.842 83.7665 147.671 84.1505 147.33C84.5345 146.946 84.7905 146.434 84.9185 145.794C85.0892 145.111 85.1745 144.301 85.1745 143.362V127.874C85.1745 126.935 85.0892 126.146 84.9185 125.506C84.7905 124.823 84.5345 124.311 84.1505 123.97C83.7665 123.586 83.2332 123.394 82.5505 123.394C81.8678 123.394 81.3345 123.586 80.9505 123.97C80.5665 124.311 80.2892 124.823 80.1185 125.506C79.9478 126.146 79.8625 126.935 79.8625 127.874V143.362C79.8625 144.301 79.9478 145.111 80.1185 145.794C80.2892 146.434 80.5665 146.946 80.9505 147.33C81.3345 147.671 81.8678 147.842 82.5505 147.842ZM101.328 154.114V102.274H111.696V120.386C113.061 119.021 114.491 118.039 115.984 117.442C117.477 116.802 119.077 116.482 120.784 116.482C122.277 116.482 123.515 116.866 124.496 117.634C125.52 118.359 126.288 119.383 126.8 120.706C127.312 121.986 127.568 123.458 127.568 125.122V154.114H117.2V126.594C117.2 125.698 117.051 125.015 116.752 124.546C116.453 124.077 115.899 123.842 115.088 123.842C114.661 123.842 114.149 123.97 113.552 124.226C112.955 124.439 112.336 124.759 111.696 125.186V154.114H101.328ZM145.923 154.754C143.235 154.754 140.931 154.285 139.01 153.346C137.091 152.365 135.619 150.957 134.595 149.122C133.571 147.245 133.059 145.005 133.059 142.402V128.834C133.059 126.189 133.571 123.949 134.595 122.114C135.619 120.279 137.091 118.893 139.01 117.954C140.973 116.973 143.277 116.482 145.923 116.482C148.653 116.482 150.915 116.951 152.707 117.89C154.541 118.829 155.907 120.215 156.803 122.05C157.741 123.885 158.211 126.146 158.211 128.834V136.258H143.363V143.362C143.363 144.301 143.469 145.069 143.683 145.666C143.896 146.263 144.195 146.69 144.579 146.946C144.963 147.202 145.411 147.33 145.923 147.33C146.435 147.33 146.883 147.223 147.267 147.01C147.693 146.754 148.013 146.37 148.227 145.858C148.483 145.346 148.611 144.642 148.611 143.746V139.842H158.211V143.426C158.211 147.181 157.123 150.018 154.947 151.938C152.771 153.815 149.763 154.754 145.923 154.754ZM143.363 131.394H148.611V127.682C148.611 126.701 148.483 125.933 148.227 125.378C148.013 124.823 147.693 124.439 147.267 124.226C146.883 124.013 146.413 123.906 145.859 123.906C145.347 123.906 144.899 124.034 144.515 124.29C144.173 124.546 143.896 124.994 143.683 125.634C143.469 126.231 143.363 127.106 143.363 128.258V131.394ZM163.953 154.114V117.122H174.385V154.114H163.953ZM163.889 110.85V103.618H174.385V110.85H163.889ZM181.403 154.114V102.274H192.859V123.458L201.563 102.274H212.763L203.163 125.698L213.211 154.114H201.563L194.075 131.202L192.859 133.25V154.114H181.403ZM229.299 154.754C226.654 154.754 224.35 154.306 222.387 153.41C220.467 152.514 218.974 151.17 217.907 149.378C216.883 147.586 216.371 145.346 216.371 142.658V128.578C216.371 125.89 216.883 123.65 217.907 121.858C218.974 120.066 220.467 118.722 222.387 117.826C224.35 116.93 226.654 116.482 229.299 116.482C231.944 116.482 234.227 116.93 236.147 117.826C238.11 118.722 239.624 120.066 240.691 121.858C241.758 123.65 242.291 125.89 242.291 128.578V142.658C242.291 145.346 241.758 147.586 240.691 149.378C239.624 151.17 238.11 152.514 236.147 153.41C234.227 154.306 231.944 154.754 229.299 154.754ZM229.363 147.842C230.046 147.842 230.579 147.671 230.963 147.33C231.347 146.946 231.603 146.434 231.731 145.794C231.902 145.111 231.987 144.301 231.987 143.362V127.874C231.987 126.935 231.902 126.146 231.731 125.506C231.603 124.823 231.347 124.311 230.963 123.97C230.579 123.586 230.046 123.394 229.363 123.394C228.68 123.394 228.147 123.586 227.763 123.97C227.379 124.311 227.102 124.823 226.931 125.506C226.76 126.146 226.675 126.935 226.675 127.874V143.362C226.675 144.301 226.76 145.111 226.931 145.794C227.102 146.434 227.379 146.946 227.763 147.33C228.147 147.671 228.68 147.842 229.363 147.842ZM248.077 154.114V117.122H258.317V120.066C259.682 118.743 261.09 117.805 262.541 117.25C264.034 116.695 265.549 116.418 267.085 116.418C268.578 116.418 269.858 116.802 270.925 117.57C272.034 118.295 272.866 119.383 273.421 120.834C274.871 119.213 276.386 118.082 277.965 117.442C279.586 116.759 281.207 116.418 282.829 116.418C284.279 116.418 285.538 116.781 286.605 117.506C287.671 118.189 288.503 119.213 289.101 120.578C289.698 121.901 289.997 123.501 289.997 125.378V154.114H279.757V126.466C279.757 125.442 279.565 124.717 279.181 124.29C278.839 123.821 278.306 123.586 277.581 123.586C277.154 123.586 276.621 123.714 275.981 123.97C275.341 124.183 274.722 124.503 274.125 124.93C274.125 125.015 274.125 125.101 274.125 125.186C274.125 125.229 274.125 125.293 274.125 125.378V154.114H264.013V126.466C264.013 125.442 263.821 124.717 263.437 124.29C263.053 123.821 262.498 123.586 261.773 123.586C261.303 123.586 260.749 123.714 260.109 123.97C259.511 124.183 258.914 124.503 258.317 124.93V154.114H248.077ZM303.88 154.754C302.003 154.754 300.424 154.306 299.144 153.41C297.864 152.514 296.904 151.383 296.264 150.018C295.624 148.61 295.304 147.181 295.304 145.73C295.304 143.426 295.752 141.485 296.648 139.906C297.587 138.327 298.803 137.005 300.296 135.938C301.789 134.871 303.432 133.975 305.224 133.25C307.016 132.482 308.787 131.799 310.536 131.202V127.49C310.536 126.85 310.472 126.295 310.344 125.826C310.216 125.314 310.003 124.93 309.704 124.674C309.405 124.375 308.957 124.226 308.36 124.226C307.763 124.226 307.293 124.354 306.952 124.61C306.653 124.866 306.44 125.229 306.312 125.698C306.184 126.125 306.099 126.615 306.056 127.17L305.8 129.858L296.072 129.474C296.285 125.037 297.459 121.773 299.592 119.682C301.768 117.549 305.011 116.482 309.32 116.482C313.075 116.482 315.869 117.527 317.704 119.618C319.581 121.666 320.52 124.333 320.52 127.618V144.898C320.52 146.434 320.541 147.778 320.584 148.93C320.669 150.082 320.755 151.085 320.84 151.938C320.968 152.791 321.075 153.517 321.16 154.114H311.816C311.688 153.133 311.539 152.066 311.368 150.914C311.197 149.762 311.069 149.079 310.984 148.866C310.557 150.402 309.747 151.767 308.552 152.962C307.4 154.157 305.843 154.754 303.88 154.754ZM307.592 147.714C308.019 147.714 308.403 147.629 308.744 147.458C309.128 147.287 309.469 147.053 309.768 146.754C310.067 146.455 310.323 146.157 310.536 145.858V135.746C309.683 136.258 308.893 136.791 308.168 137.346C307.443 137.858 306.824 138.434 306.312 139.074C305.8 139.714 305.395 140.418 305.096 141.186C304.84 141.911 304.712 142.743 304.712 143.682C304.712 144.919 304.968 145.901 305.48 146.626C305.992 147.351 306.696 147.714 307.592 147.714ZM326.702 154.114V102.274H337.07V131.01L346.158 117.122H357.87L348.014 132.29L357.742 154.114H346.35L339.822 136.514L337.07 140.034V154.114H326.702ZM361.391 154.114V117.122H371.823V154.114H361.391ZM361.327 110.85V103.618H371.823V110.85H361.327Z" fill="url(#paint0_linear_106_16)"/>
<path d="M63.456 29.976C105.984 47.256 94.368 80.856 78.72 67.992C76.608 55.128 69.792 41.304 62.496 30.552L63.456 29.976ZM19.584 28.44L38.208 35.832C37.824 36.792 36.96 37.656 34.56 37.656C28.416 50.232 18.24 65.208 2.4 74.328L1.728 73.56C11.328 60.888 17.376 41.688 19.584 28.44ZM41.856 6.36L59.904 7.992C59.712 9.432 58.752 10.392 56.352 10.776V79.608C56.352 89.208 53.952 94.488 37.056 96.024C36.576 91.224 35.808 88.056 33.504 85.752C31.2 83.544 28.608 82.008 21.792 80.76V79.608C21.792 79.608 36.576 80.376 39.552 80.376C41.28 80.376 41.856 79.8 41.856 78.552V6.36ZM145.824 4.152L163.968 8.952C163.584 10.2 162.432 10.968 160.128 11.064C154.944 30.36 146.88 44.184 134.688 53.688L133.632 53.016C139.68 40.536 144.576 22.104 145.824 4.152ZM148.128 29.688C152.832 57.336 166.176 74.232 191.136 82.968L190.848 84.024C184.224 85.56 180.576 89.4 178.944 95.928C158.016 84.024 150.336 61.848 147.168 31.608L148.128 29.688ZM166.56 27.192H182.592C178.56 57.24 165.216 83.832 128.544 96.024L128.064 95.16C154.752 78.936 164.928 53.4 166.56 27.192ZM114.624 5.016L131.136 6.648C130.944 7.992 130.272 8.952 127.584 9.336V91.608C127.584 92.952 122.016 96.12 117.12 96.12H114.624V5.016ZM102.432 11.928L117.696 15.384C117.312 16.632 116.16 17.496 114.048 17.592C110.976 29.496 106.464 40.344 100.032 47.832L98.688 47.16C100.8 37.656 102.24 23.928 102.432 11.928ZM98.208 54.168C104.64 52.44 121.536 47.064 137.376 41.4L137.664 42.264C131.808 47.832 121.92 56.088 107.424 66.264C107.136 67.608 106.176 68.76 104.928 69.24L98.208 54.168ZM104.64 29.496H126.816L132.672 19.608C132.672 19.608 139.296 26.424 142.656 30.648C142.368 31.704 141.408 32.184 140.064 32.184H104.64V29.496ZM146.976 27.192H170.976L178.08 17.016C178.08 17.016 186.048 23.832 190.56 28.344C190.272 29.4 189.216 29.88 187.776 29.88H146.976V27.192ZM198.528 81.432C206.4 80.568 224.736 77.688 243.744 74.424L243.936 75.48C236.928 79.896 226.176 85.752 209.184 93.624C208.704 94.968 207.648 95.832 206.496 96.12L198.528 81.432ZM237.888 49.56C244.608 71.832 264.288 78.264 286.848 81.24L286.752 82.392C281.088 83.832 277.248 88.248 275.52 94.872C254.688 88.152 241.824 77.88 236.736 50.232L237.888 49.56ZM267.264 52.152L280.512 63.288C279.936 64.152 278.88 64.632 276.672 63.96C269.376 66.744 259.2 69.72 249.504 71.736L248.736 70.68C255.36 65.496 263.424 57.144 267.264 52.152ZM210.528 18.072V12.408L225.984 18.072H224.64V82.008C224.64 82.392 220.416 83.64 213.12 83.64H210.528V18.072ZM216.672 18.072H261.408V20.76H216.672V18.072ZM216.672 33.432H261.792V36.12H216.672V33.432ZM216.48 49.176H262.08V51.864H216.48V49.176ZM256.8 18.072H255.84L262.08 11.256L274.752 20.952C274.08 21.72 272.928 22.584 270.912 22.968V51.48C270.816 52.344 264.096 55.224 259.2 55.224H256.8V18.072ZM232.704 4.92L249.888 6.16799C249.696 7.41599 249.12 8.27999 246.816 8.664V19.704H232.704V4.92ZM302.88 21.048C334.176 33.624 320.16 59.256 307.584 47.064C307.488 38.232 304.992 29.112 302.016 21.432L302.88 21.048ZM290.496 56.664H360.288L367.968 47.16C367.968 47.16 376.608 53.496 381.888 57.816C381.6 58.872 380.448 59.352 379.008 59.352H291.264L290.496 56.664ZM294.336 13.368H356.448L364.128 4.152C364.128 4.152 372.768 10.296 378.048 14.52C377.76 15.576 376.704 16.056 375.264 16.056H295.104L294.336 13.368ZM328.32 14.232H342.72V92.184C342.72 93.048 338.4 96.024 331.008 96.024H328.32V14.232ZM356.544 20.664L374.208 27C373.824 28.152 372.48 29.016 370.272 28.824C363.936 38.04 356.352 46.2 348.576 51.864L347.52 51.192C350.496 43.704 354.144 31.32 356.544 20.664Z" fill="white"/>
<defs>
<linearGradient id="paint0_linear_106_16" x1="281.25" y1="78.1139" x2="281.25" y2="167" gradientUnits="userSpaceOnUse">
<stop stop-color="#310A65"/>
<stop offset="1" stop-color="white"/>
</linearGradient>
</defs>
</svg>
