<svg width="414" height="36" viewBox="0 0 414 36" fill="none" xmlns="http://www.w3.org/2000/svg">
<path d="M0.913159 16.2264H26.6121L28.471 13.6174C28.471 13.6174 30.5908 15.3785 31.7975 16.6177C31.6997 16.9765 31.3735 17.1396 30.917 17.1396H1.17406L0.913159 16.2264ZM1.23929 23.8904H26.6121L28.4058 21.1509C28.4058 21.1509 30.493 23.0425 31.6018 24.3144C31.504 24.6731 31.2105 24.8362 30.7539 24.8362H1.50019L1.23929 23.8904ZM11.3493 8.56238H14.6432V24.2165H11.3493V8.56238ZM16.9913 8.56238H20.3178V24.2165H16.9913V8.56238ZM22.6659 8.56238H26.0903V24.2165H22.6659V8.56238ZM5.87031 8.56238V7.22526L9.29465 8.56238H9.1642V24.2165H5.87031V8.56238ZM7.3705 3.34433L12.5233 5.33371C12.3603 5.72507 11.9363 5.95336 11.1862 5.92074C8.51195 9.89951 5.02237 12.8347 1.50019 14.6284L1.14145 14.3348C3.35912 11.8237 5.83769 7.584 7.3705 3.34433ZM7.30527 8.56238H25.014L27.0034 5.88813C27.0034 5.88813 29.2537 7.71445 30.5908 8.98635C30.493 9.34509 30.1342 9.50815 29.6777 9.50815H7.30527V8.56238ZM6.75085 25.7167H7.20743C8.38149 29.989 6.65301 32.6959 4.72886 33.609C3.52218 34.2287 1.95677 33.9352 1.5328 32.7285C1.20667 31.587 1.92416 30.7065 2.93515 30.2499C4.59841 29.6629 6.52256 27.967 6.75085 25.7167ZM11.0231 26.0429C17.7414 30.2499 13.7626 35.8593 11.1862 32.7611C11.5123 30.6086 11.1862 28.0648 10.6318 26.1733L11.0231 26.0429ZM16.6978 26.0429C25.3075 29.1085 22.1115 35.6962 18.948 32.9568C18.8502 30.6739 17.6109 27.9996 16.3716 26.2059L16.6978 26.0429ZM22.8942 25.6841C34.0804 27.967 31.6997 35.8267 27.884 33.4786C27.1013 30.8369 24.7205 27.8039 22.6007 25.9124L22.8942 25.6841ZM36.4611 7.25787H43.4077L45.2992 4.90975C45.2992 4.90975 47.419 6.44255 48.7562 7.64922C48.6583 8.00796 48.3322 8.17103 47.843 8.17103H36.1024L36.4611 7.25787ZM32.9389 11.8889H44.2556L46.0819 9.50815C46.0819 9.50815 48.1691 11.1388 49.4736 12.3129C49.3758 12.639 49.0171 12.802 48.5605 12.802H33.1998L32.9389 11.8889ZM37.6026 17.0091H44.5817L46.1471 15.0849C46.1471 15.0849 47.9082 16.4221 49.0171 17.4331C48.9518 17.7918 48.6257 17.9549 48.1691 17.9549H37.6026V17.0091ZM37.6026 21.2162H44.8426L46.3102 19.2268C46.3102 19.2268 47.9408 20.6291 48.8866 21.6075C48.8214 21.9662 48.4953 22.1293 48.0713 22.1293H37.6026V21.2162ZM37.6026 25.4558H44.8426L46.3102 23.4991C46.3102 23.4991 47.9408 24.8688 48.8866 25.8472C48.8214 26.2059 48.4953 26.369 48.0713 26.369H37.6026V25.4558ZM37.4721 29.8586H45.1035L46.7668 27.7061C46.7668 27.7061 48.6583 29.2063 49.7672 30.2499C49.6693 30.6086 49.3432 30.7717 48.9192 30.7717H37.4721V29.8586ZM39.2658 17.0091V31.9458C39.2658 32.2067 38.1896 32.9894 36.4611 32.9894H35.8415V18.3136L37.3417 16.1286L39.6898 17.0091H39.2658ZM41.3531 17.0091H44.5165V30.413H41.3531V17.0091ZM36.5264 3.24649L41.0595 4.81191C40.8965 5.20326 40.5051 5.46416 39.7876 5.43155C38.2874 7.97535 36.2328 9.93212 34.0478 11.1714L33.6564 10.8779C34.8305 9.05157 35.9393 6.14903 36.5264 3.24649ZM41.8096 13.1282L45.9841 14.1066C45.8536 14.4979 45.4949 14.7914 44.81 14.7588C44.0273 15.6067 42.8206 16.683 41.7118 17.4657H41.19C41.4509 16.2916 41.7118 14.4001 41.8096 13.1282ZM49.5063 5.82291V4.2901L53.4524 5.82291H57.7247L59.551 3.73569L62.9427 6.37732C62.6818 6.67084 62.3557 6.89913 61.6056 7.02958V22.8142C61.6056 23.0099 60.3663 23.76 58.5074 23.76H57.8877V6.73606H53.0611V23.3034C53.0611 23.5643 51.9522 24.2491 50.1259 24.2491H49.5063V5.82291ZM50.7129 11.0083H60.1054V11.9541H50.7129V11.0083ZM50.7129 16.2916H60.1054V17.2048H50.7129V16.2916ZM50.7129 21.6075H60.1054V22.5533H50.7129V21.6075ZM55.507 21.6401H58.8661C58.8661 21.9662 58.8661 22.4554 58.8661 22.6837V29.2715C58.8661 29.6629 58.9314 29.7607 59.3879 29.7607H60.138C60.4642 29.7607 60.7577 29.7607 60.8881 29.7607C61.149 29.7281 61.2469 29.6955 61.3773 29.402C61.6382 28.9128 62.0622 27.2821 62.584 25.521H62.9427L63.0406 29.5324C63.8233 29.9238 63.9211 30.3477 63.9211 31.0326C63.9211 32.4024 62.8775 33.2503 59.7793 33.2503H58.2139C55.8005 33.2503 55.507 32.5328 55.507 30.3477V21.6401ZM39.3311 7.29048H43.7012C42.0705 12.8673 38.1244 18.0853 32.8085 21.2814L32.5476 20.9226C36.0698 17.3026 38.6136 11.9541 39.3311 7.29048ZM51.1043 21.901H54.6591C54.2025 28.2931 51.4304 32.011 44.2882 33.9352L44.1251 33.5112C49.4736 30.8043 50.9086 27.2821 51.1043 21.901ZM73.1505 23.7926H87.011V24.7057H73.1505V23.7926ZM73.0853 30.576H87.011V31.4892H73.0853V30.576ZM75.5639 12.1498H86.6849V13.0956H74.6507L75.5639 12.1498ZM75.3356 23.7926V32.8263C75.3356 33.0872 74.1942 33.9025 72.27 33.9025H71.6177V24.1187L72.8244 22.6837L75.7596 23.7926H75.3356ZM85.1847 23.7926H84.8912L86.587 21.9662L90.1092 24.6079C89.9461 24.8362 89.5874 25.0971 89.0004 25.1949V32.8915C88.9678 33.0872 87.0762 33.8047 85.8369 33.8047H85.1847V23.7926ZM84.0758 12.1498H83.6519L85.9022 10.193L89.1961 13.3239C88.9352 13.65 88.5764 13.7478 87.7285 13.813C83.0975 20.0095 75.1725 24.2491 65.0952 25.945L64.8669 25.4884C73.281 22.8794 80.7167 18.0527 84.0758 12.1498ZM74.8138 12.8673C78.5317 18.2158 87.4023 20.8248 95.4577 21.738L95.4251 22.1293C93.8597 22.4881 92.8487 23.6947 92.4573 25.4558C84.5324 23.5643 77.749 19.9443 74.3898 13.1934L74.8138 12.8673ZM79.51 10.5192C76.8358 14.0739 72.27 18.0201 66.6606 20.1399L66.3997 19.8464C70.7046 16.8786 74.3246 12.1498 75.89 8.62761L81.0428 9.83428C80.9124 10.2582 80.4884 10.4865 79.51 10.5192ZM69.1392 7.3231H92.1964V8.23625H69.1392V7.3231ZM78.1729 3.34433L83.2931 3.73569C83.2605 4.19226 82.9996 4.51839 82.1191 4.64884V7.87751H78.1729V3.34433ZM69.237 5.33371H69.6936C71.0959 9.24725 70.0523 12.0193 68.5521 13.063C67.5411 13.8457 65.9431 13.65 65.4539 12.4759C65.03 11.3997 65.6822 10.4539 66.628 9.89951C67.8347 9.18203 69.237 7.3231 69.237 5.33371ZM90.3701 7.3231H90.0114L91.9681 5.33371L95.3273 8.56238C95.099 8.8559 94.7402 8.92112 94.0554 8.95373C92.9465 10.0626 90.9245 11.5301 89.3917 12.3781L89.0656 12.1498C89.5548 10.8127 90.1418 8.59499 90.3701 7.3231ZM101.295 13.6174L101.752 13.3891C102.698 14.4001 103.317 15.0197 104.589 15.0197C106.546 15.0197 114.797 13.9761 117.308 13.5195C118.482 13.2912 118.939 12.639 119.689 12.639C121.026 12.639 123.831 14.8567 123.831 16.1612C123.831 17.0091 122.331 17.5309 121.613 18.868C118.548 24.5753 113.134 30.1195 103.513 32.9242L103.154 32.2719C111.177 28.0648 116.167 21.7053 117.993 16.4221C118.124 15.9981 117.993 15.8677 117.634 15.8677C115.873 15.9655 109.253 17.2374 107.166 17.857C106.22 18.1505 105.6 18.7376 104.883 18.7376C103.513 18.7376 101.85 16.7482 101.556 15.7372C101.328 15.0197 101.263 14.4001 101.295 13.6174ZM118.58 9.01896C115.971 9.6386 111.21 10.4539 108.405 10.4539C106.35 10.4539 105.274 9.24725 104.133 6.86652L104.459 6.573C105.829 7.42093 106.97 7.55138 108.046 7.55138C110.492 7.55138 112.384 6.96435 113.754 6.573C115.417 6.14903 115.873 5.69245 116.363 5.69245C118.548 5.69245 119.95 6.37732 119.95 7.68184C119.95 8.33409 119.624 8.75806 118.58 9.01896ZM144.759 5.75768L144.922 5.20326C145.836 5.17065 146.847 5.10542 147.858 5.39894C149.619 5.95336 151.575 7.77967 151.575 8.92112C151.575 9.89951 150.793 9.89951 149.912 10.8127C148.477 12.2476 146.325 14.5305 143.748 16.7808C141.857 18.4115 136.41 22.6837 130.051 24.771L129.692 24.1187C136.606 20.1399 143.39 13.226 145.803 9.47554C146.39 8.59499 146.684 7.94274 146.684 7.51877C146.684 6.89913 145.77 6.24687 144.759 5.75768ZM142.411 16.0307L144.009 14.6936C145.607 15.835 147.107 16.683 147.107 17.5309C147.107 18.0853 146.814 18.6724 146.781 19.6181C146.618 24.0209 146.879 28.7171 146.879 30.3804C146.879 31.7501 146.26 32.6633 145.053 32.6633C143.357 32.6633 142.607 31 142.607 29.3694C142.607 28.7171 142.803 27.967 142.933 26.9234C143.324 23.6947 143.357 20.0421 143.324 18.5745C143.292 17.5309 142.998 16.9113 142.411 16.0307ZM184.864 9.57338C184.245 8.69283 183.462 7.51877 181.929 6.24687L182.223 5.79029C184.049 6.27949 185.582 6.86652 186.593 7.77967C187.31 8.43193 187.538 8.98635 187.538 9.6386C187.538 10.2909 187.049 10.8127 186.364 10.8127C185.843 10.8127 185.419 10.3561 184.864 9.57338ZM187.669 7.02958C187.082 6.27949 186.43 5.33371 184.701 4.0292L184.995 3.60523C186.854 3.96397 188.321 4.51839 189.234 5.20326C190.082 5.82291 190.408 6.47516 190.408 7.22526C190.408 7.91013 189.984 8.36671 189.332 8.36671C188.68 8.36671 188.321 7.8449 187.669 7.02958ZM165.557 10.617C168.166 10.617 176.417 9.76906 178.146 9.3777C179.516 9.08419 179.548 8.56238 180.461 8.56238C181.962 8.56238 185.386 11.5301 185.386 12.7042C185.386 13.813 184.179 14.1718 183.658 15.2154C179.744 23.1729 173.776 29.3367 163.209 32.7285L162.851 32.1088C171.754 27.4452 178.211 19.4224 179.809 12.2476C179.874 11.9867 179.744 11.8563 179.516 11.8563C177.298 11.8563 170.123 13.3891 168.264 13.8783C167.482 14.0739 166.666 14.7262 165.916 14.7262C164.481 14.7262 162.72 12.6064 162.394 11.3671C162.166 10.5518 162.166 9.96473 162.166 9.1168L162.655 8.92112C163.535 9.83428 164.351 10.617 165.557 10.617ZM208.248 5.85552H218.782V6.80129H208.541L208.248 5.85552ZM216.009 5.85552H215.651L217.379 3.96397L221.032 6.73606C220.804 7.02958 220.249 7.35571 219.499 7.51877V17.7918C219.466 18.0201 217.738 18.6397 216.596 18.6397H216.009V5.85552ZM209.748 14.6284H218.129V15.5741H209.748V14.6284ZM208.411 14.6284V13.1934V13.1282L212.324 14.6284H211.9V28.6193C211.9 29.1737 212.063 29.3694 213.042 29.3694H215.585C216.629 29.3694 217.477 29.3367 217.868 29.3367C218.26 29.3041 218.455 29.2063 218.651 28.8802C218.977 28.2605 219.499 26.369 220.021 24.3144H220.412L220.51 29.0758C221.488 29.4672 221.717 29.8912 221.717 30.5434C221.717 32.011 220.282 32.7937 215.292 32.7937H212.226C209.128 32.7937 208.411 32.1088 208.411 29.565V14.6284ZM190.8 5.88813H202.606L204.465 3.44217C204.465 3.44217 206.584 5.13804 207.856 6.27949C207.758 6.63823 207.432 6.80129 206.976 6.80129H191.061L190.8 5.88813ZM193.18 24.3796H204.66V25.2928H193.18V24.3796ZM193.278 29.8259H204.791V30.7391H193.278V29.8259ZM202.964 11.5954H202.638L204.236 9.83428L207.465 12.3781C207.269 12.639 206.845 12.8673 206.226 12.9977V32.2719C206.193 32.5328 204.628 33.2829 203.486 33.2829H202.964V11.5954ZM199.442 5.92074H202.051V11.9215H199.442V5.92074ZM199.442 11.628H201.497C201.497 11.9867 201.497 12.3455 201.497 12.5738V18.0853C201.497 18.4115 201.562 18.5093 201.758 18.5093H202.116C202.247 18.5093 202.377 18.5093 202.508 18.5093C202.606 18.5093 202.736 18.5093 202.834 18.5093C202.964 18.4767 203.193 18.4441 203.356 18.4115H203.617L203.747 18.4441C204.334 18.6397 204.595 18.868 204.595 19.4224C204.595 20.3356 203.91 20.7596 201.921 20.7596H201.105C199.638 20.7596 199.442 20.2378 199.442 18.9333V11.628ZM191.68 11.5954V10.1604L195.007 11.5954H204.725V12.5085H194.811V32.6633C194.811 33.022 193.604 33.8047 192.202 33.8047H191.68V11.5954ZM198.203 11.628V13.7804C198.203 16.0633 197.942 19.6834 195.072 22.0315L194.681 21.6075C196.213 19.0637 196.181 16.0307 196.181 13.7478V11.628H198.203ZM198.203 5.92074V11.9215H195.626V5.92074H198.203ZM232.642 10.5518H248.1L250.122 7.81229C250.122 7.81229 252.438 9.67122 253.775 10.9431C253.677 11.3019 253.351 11.4649 252.862 11.4649H232.903L232.642 10.5518ZM235.284 6.05119H245.491L247.448 3.40956C247.448 3.40956 249.633 5.20326 250.938 6.47516C250.873 6.80129 250.514 6.96435 250.025 6.96435H235.545L235.284 6.05119ZM234.664 14.8893H246.502L248.394 12.3455C248.394 12.3455 250.514 14.1066 251.786 15.3132C251.688 15.672 251.362 15.835 250.905 15.835H234.925L234.664 14.8893ZM234.664 19.2594H246.502L248.394 16.7156C248.394 16.7156 250.514 18.4767 251.786 19.6834C251.688 20.0421 251.362 20.2052 250.905 20.2052H234.925L234.664 19.2594ZM236.653 30.3477H249.177V31.2609H236.653V30.3477ZM234.762 23.5643V22.0315L238.741 23.5643H249.242V24.51H238.545V32.5328C238.545 32.8915 236.882 33.7069 235.316 33.7069H234.762V23.5643ZM247.089 23.5643H246.763L248.492 21.6401L252.21 24.4448C252.014 24.6731 251.557 24.9992 250.905 25.0971V32.4676C250.873 32.6959 249.014 33.4786 247.709 33.4786H247.089V23.5643ZM226.543 13.9435L228.044 12.0193L231.403 13.226C231.305 13.5195 230.979 13.7478 230.392 13.8783V32.7611C230.326 33.0546 228.761 33.8699 227.261 33.8699H226.543V13.9435ZM228.892 3.31172L234.24 4.90975C234.11 5.33371 233.686 5.59462 232.936 5.59462C230.424 12.1498 227 17.5635 222.728 21.2162L222.336 20.9553C224.848 16.6504 227.522 9.73644 228.892 3.31172ZM265.418 14.2696H280.061L282.05 11.3997C282.05 11.3997 284.301 13.3891 285.573 14.6936C285.475 15.0523 285.149 15.2154 284.692 15.2154H265.679L265.418 14.2696ZM265.614 19.6507H280.974L282.67 17.0091C282.67 17.0091 284.627 18.8354 285.67 20.0421C285.605 20.4008 285.279 20.5639 284.822 20.5639H265.874L265.614 19.6507ZM267.244 8.26887H279.017L280.909 5.562C280.909 5.562 283.061 7.42093 284.268 8.66022C284.17 9.01896 283.844 9.18203 283.388 9.18203H267.505L267.244 8.26887ZM272.984 3.34433L277.941 3.7683C277.876 4.22488 277.615 4.551 276.735 4.68146V14.5631H272.984V3.34433ZM276.865 15.4763L281.757 15.9003C281.659 16.3895 281.366 16.6504 280.615 16.7482V29.4998C280.615 32.0762 279.996 33.5438 275.397 33.9352C275.267 32.7611 275.039 31.9132 274.419 31.3261C273.767 30.7717 272.919 30.3804 270.962 30.0868V29.6303C270.962 29.6303 275.332 29.8912 276.147 29.8912C276.702 29.8912 276.865 29.6955 276.865 29.3041V15.4763ZM267.603 21.2488C276.702 22.9446 273.538 29.565 270.114 27.0538C269.755 25.0971 268.451 22.8794 267.309 21.4444L267.603 21.2488ZM260.004 3.34433L264.733 3.80091C264.635 4.25749 264.407 4.58362 263.526 4.71407V32.6306C263.526 33.0546 262.026 33.9352 260.689 33.9352H260.004V3.34433ZM256.254 5.72507L260.624 6.67084C260.526 7.06219 260.167 7.38832 259.45 7.42093C258.602 11.3671 257.265 15.0523 255.21 17.5309L254.721 17.27C255.634 14.1392 256.188 9.73644 256.254 5.72507ZM254.493 20.1073C256.775 19.6834 262.646 18.3462 268.386 16.8786L268.483 17.27C266.135 18.8028 262.45 20.9553 257.134 23.6295C256.939 24.0209 256.612 24.3796 256.254 24.51L254.493 20.1073ZM257.102 11.4649H263.657L265.483 8.59499C265.483 8.59499 267.57 10.5844 268.712 11.8563C268.614 12.215 268.288 12.3781 267.831 12.3781H257.102V11.4649ZM303.966 5.562H310.489V6.47516H303.966V5.562ZM301.944 5.562V5.23587V4.09443L306.021 5.562H305.434V8.07319C305.434 10.7148 304.847 15.0197 299.531 17.4331L299.303 17.1069C301.716 14.3348 301.944 10.8127 301.944 8.07319V5.562ZM308.826 5.562H308.499L310.195 3.70307L313.326 6.27949C313.13 6.47516 312.837 6.67084 312.315 6.76868V11.791C312.315 12.1498 312.38 12.2476 312.772 12.2476H313.554C313.881 12.2476 314.174 12.2476 314.304 12.215C314.533 12.215 314.631 12.1824 314.794 11.8889C315.022 11.4323 315.479 9.99734 316 8.26887H316.359L316.457 12.0193C317.24 12.4107 317.37 12.802 317.37 13.4543C317.37 14.7588 316.131 15.5089 313.13 15.5089H311.565C309.119 15.5089 308.826 14.7914 308.826 12.639V5.562ZM299.759 18.1505H311.859V19.0637H300.053L299.759 18.1505ZM310.358 18.1505H309.934L312.087 16.0959L315.642 19.2268C315.413 19.5529 315.087 19.6507 314.304 19.716C311.793 26.4016 306.738 31.5218 297.476 33.9025L297.281 33.4786C304.39 30.3151 308.695 24.771 310.358 18.1505ZM302.596 18.1832C304.782 25.2928 310.815 28.5214 317.729 30.1521L317.664 30.5108C316.066 30.8369 314.892 32.0436 314.337 33.9025C307.912 31.1305 303.901 26.956 302.14 18.4115L302.596 18.1832ZM288.312 5.69245H294.411L296.139 3.47478C296.139 3.47478 298.063 5.00758 299.237 6.08381C299.172 6.44255 298.813 6.60561 298.357 6.60561H288.573L288.312 5.69245ZM288.149 14.0087H294.509L296.139 11.8889C296.139 11.8889 298.031 13.3565 299.14 14.4327C299.042 14.7914 298.748 14.9219 298.292 14.9219H288.41L288.149 14.0087ZM288.149 18.2484H294.476L296.107 16.1286C296.107 16.1286 297.998 17.5961 299.14 18.6397C299.042 18.9985 298.716 19.1615 298.259 19.1615H288.41L288.149 18.2484ZM286.518 9.76906H296.204L297.933 7.584C297.933 7.584 299.89 9.08419 301.064 10.193C300.966 10.5518 300.64 10.7148 300.183 10.7148H286.779L286.518 9.76906ZM288.182 22.6185V21.1835L291.736 22.6185H296.726V23.5643H291.606V32.6959C291.606 33.022 290.106 33.8047 288.671 33.8047H288.182V22.6185ZM295.193 22.6185H294.867L296.498 20.8574L299.922 23.4338C299.727 23.6947 299.303 23.9556 298.716 24.0861V31.6196C298.683 31.8805 296.954 32.598 295.78 32.598H295.193V22.6185ZM289.877 29.7281H296.694V30.6413H289.877V29.7281ZM338.471 11.7584C338.471 9.6386 340.199 7.91013 342.351 7.91013C344.471 7.91013 346.2 9.6386 346.2 11.7584C346.2 13.9109 344.471 15.6394 342.351 15.6394C340.199 15.6394 338.471 13.9109 338.471 11.7584ZM339.808 11.7584C339.808 13.1608 340.949 14.3022 342.351 14.3022C343.754 14.3022 344.863 13.1608 344.863 11.7584C344.863 10.3561 343.754 9.24725 342.351 9.24725C340.949 9.24725 339.808 10.3561 339.808 11.7584ZM319.099 19.5529L319.49 19.2594C320.175 19.8464 320.925 20.1725 321.349 20.1725C321.805 20.1725 322.392 19.879 323.175 19.1942C324.838 17.7592 327.676 14.4979 328.622 13.4869C329.469 12.6064 330.22 12.052 331.165 12.052C332.274 12.052 333.253 12.5411 334.394 13.6174C338.862 17.7592 343.493 21.9989 346.689 24.1513C347.928 24.934 348.646 26.3364 348.646 27.6735C348.646 28.7497 348.026 29.4672 347.048 29.4672C345.808 29.4672 344.178 28.1953 341.634 25.521C339.677 23.4012 334.59 17.7266 332.731 15.9003C332.111 15.248 331.654 15.0197 331.296 15.0197C330.97 15.0197 330.643 15.248 330.154 15.8677C329.111 17.2048 326.86 20.6291 325.882 22.2272C325.165 23.3034 324.643 24.2491 323.469 24.2491C322.197 24.2491 320.599 23.2381 319.751 22.0315C319.294 21.3792 319.131 20.6291 319.099 19.5529ZM352.885 15.9981C353.864 17.27 354.451 18.1505 356.179 18.1505C359.669 18.1505 369.518 17.4983 371.475 17.3352C373.66 17.1722 375.127 16.8786 375.943 16.8786C377.899 16.8786 379.595 17.8896 379.595 19.292C379.595 20.2378 378.78 20.6943 377.41 20.6943C376.138 20.6943 374.997 20.5965 372.681 20.5965C370.203 20.5965 362.93 21.0857 360.419 21.3466C358.071 21.6075 357.582 22.3576 356.342 22.3576C355.038 22.3576 353.049 20.2704 352.429 18.6724C352.168 17.9223 352.233 16.9765 352.364 16.1612L352.885 15.9981ZM405.244 11.0083C404.625 10.0952 403.711 8.82328 402.277 7.38832L402.635 6.93174C404.462 7.55138 406.06 8.20364 407.005 9.14941C407.723 9.83428 407.984 10.3887 407.984 11.041C407.984 11.7258 407.462 12.2476 406.744 12.2476C406.223 12.2476 405.766 11.791 405.244 11.0083ZM408.473 8.13841C407.886 7.35571 407.103 6.34471 405.473 4.87713L405.766 4.45317C407.658 4.90975 409.125 5.562 410.071 6.24687C410.854 6.89913 411.245 7.51877 411.245 8.30148C411.245 8.98635 410.788 9.47554 410.136 9.47554C409.484 9.47554 409.093 8.95373 408.473 8.13841ZM389.003 8.00796L389.231 7.42093C390.308 7.48616 391.84 7.584 393.83 8.00796C396.08 8.62761 398.004 9.73644 398.004 11.791C398.004 12.6716 397.287 13.5195 396.406 13.5195C394.841 13.5195 394.221 12.2802 392.493 10.6822C391.253 9.54077 390.047 8.66022 389.003 8.00796ZM410.952 12.6064L411.506 12.9651C408.245 19.6181 400.907 26.2711 393.765 30.4782C392.721 31.1305 392.264 32.1741 391.156 32.1741C389.753 32.1741 387.601 30.7065 386.622 29.2389C386.101 28.391 385.84 26.8582 385.84 26.0102L386.264 25.7493C386.949 26.4994 388.057 27.7713 389.329 27.7713C393.08 27.7713 405.407 19.3246 410.952 12.6064ZM384.894 14.824L385.09 14.2696C386.427 14.3675 387.699 14.4979 389.427 14.9219C391.775 15.4763 394.025 16.7808 394.025 18.7702C394.025 19.5529 393.634 20.5639 392.264 20.5639C390.732 20.5639 390.112 19.1289 388.547 17.7918C387.079 16.3895 385.872 15.4111 384.894 14.824Z" fill="white"/>
</svg>
