<svg viewBox="0 0 576 165" fill="none" xmlns="http://www.w3.org/2000/svg">
<path d="M4.032 152V100.16H15.488V121.152H23.488V100.16H35.008V152H23.488V129.344H15.488V152H4.032ZM42.3905 152V115.008H52.8225V152H42.3905ZM42.3265 108.736V101.504H52.8225V108.736H42.3265ZM59.392 152V115.008H69.824V121.152C71.0187 119.019 72.2133 117.397 73.408 116.288C74.6027 115.136 76.0533 114.56 77.76 114.56C78.1013 114.56 78.4 114.581 78.656 114.624C78.912 114.624 79.1467 114.667 79.36 114.752V125.12C78.8907 124.907 78.3573 124.736 77.76 124.608C77.2053 124.437 76.608 124.352 75.968 124.352C74.7733 124.352 73.664 124.672 72.64 125.312C71.616 125.952 70.6773 126.827 69.824 127.936V152H59.392ZM95.924 152.64C93.2787 152.64 90.9747 152.192 89.012 151.296C87.092 150.4 85.5987 149.056 84.532 147.264C83.508 145.472 82.996 143.232 82.996 140.544V126.464C82.996 123.776 83.508 121.536 84.532 119.744C85.5987 117.952 87.092 116.608 89.012 115.712C90.9747 114.816 93.2787 114.368 95.924 114.368C98.5693 114.368 100.852 114.816 102.772 115.712C104.735 116.608 106.249 117.952 107.316 119.744C108.383 121.536 108.916 123.776 108.916 126.464V140.544C108.916 143.232 108.383 145.472 107.316 147.264C106.249 149.056 104.735 150.4 102.772 151.296C100.852 152.192 98.5693 152.64 95.924 152.64ZM95.988 145.728C96.6707 145.728 97.204 145.557 97.588 145.216C97.972 144.832 98.228 144.32 98.356 143.68C98.5267 142.997 98.612 142.187 98.612 141.248V125.76C98.612 124.821 98.5267 124.032 98.356 123.392C98.228 122.709 97.972 122.197 97.588 121.856C97.204 121.472 96.6707 121.28 95.988 121.28C95.3053 121.28 94.772 121.472 94.388 121.856C94.004 122.197 93.7267 122.709 93.556 123.392C93.3853 124.032 93.3 124.821 93.3 125.76V141.248C93.3 142.187 93.3853 142.997 93.556 143.68C93.7267 144.32 94.004 144.832 94.388 145.216C94.772 145.557 95.3053 145.728 95.988 145.728ZM115.726 162.752V155.52C117.048 155.52 118.136 155.435 118.99 155.264C119.886 155.093 120.547 154.773 120.974 154.304C121.443 153.835 121.678 153.195 121.678 152.384C121.678 151.659 121.55 150.784 121.294 149.76C121.038 148.693 120.718 147.499 120.334 146.176L111.63 115.008H121.422L126.094 136.384L129.614 115.008H139.47L130.958 152.896C130.403 155.456 129.528 157.44 128.333 158.848C127.139 160.299 125.667 161.301 123.918 161.856C122.211 162.453 120.27 162.752 118.094 162.752H115.726ZM149.917 152.64C148.424 152.64 147.144 152.277 146.077 151.552C145.053 150.784 144.285 149.739 143.773 148.416C143.261 147.093 143.005 145.621 143.005 144V115.008H153.437V142.784C153.437 143.68 153.586 144.384 153.885 144.896C154.226 145.365 154.802 145.6 155.613 145.6C156.082 145.6 156.573 145.493 157.085 145.28C157.597 145.024 158.13 144.747 158.685 144.448V115.008H169.053V152H158.685V148.608C157.362 149.845 155.954 150.827 154.461 151.552C153.01 152.277 151.496 152.64 149.917 152.64ZM175.639 152V100.16H186.007V128.896L195.095 115.008H206.807L196.951 130.176L206.679 152H195.287L188.759 134.4L186.007 137.92V152H175.639ZM210.328 152V115.008H220.76V152H210.328ZM210.264 108.736V101.504H220.76V108.736H210.264ZM232.45 152V108.672H224.642V100.16H251.714V108.672H243.97V152H232.45ZM262.568 152.64C260.69 152.64 259.112 152.192 257.832 151.296C256.552 150.4 255.592 149.269 254.952 147.904C254.312 146.496 253.992 145.067 253.992 143.616C253.992 141.312 254.44 139.371 255.336 137.792C256.274 136.213 257.49 134.891 258.984 133.824C260.477 132.757 262.12 131.861 263.912 131.136C265.704 130.368 267.474 129.685 269.224 129.088V125.376C269.224 124.736 269.16 124.181 269.032 123.712C268.904 123.2 268.69 122.816 268.392 122.56C268.093 122.261 267.645 122.112 267.048 122.112C266.45 122.112 265.981 122.24 265.64 122.496C265.341 122.752 265.128 123.115 265 123.584C264.872 124.011 264.786 124.501 264.744 125.056L264.488 127.744L254.76 127.36C254.973 122.923 256.146 119.659 258.28 117.568C260.456 115.435 263.698 114.368 268.008 114.368C271.762 114.368 274.557 115.413 276.392 117.504C278.269 119.552 279.208 122.219 279.208 125.504V142.784C279.208 144.32 279.229 145.664 279.272 146.816C279.357 147.968 279.442 148.971 279.528 149.824C279.656 150.677 279.762 151.403 279.848 152H270.503C270.376 151.019 270.226 149.952 270.056 148.8C269.885 147.648 269.757 146.965 269.672 146.752C269.245 148.288 268.434 149.653 267.24 150.848C266.088 152.043 264.53 152.64 262.568 152.64ZM266.28 145.6C266.706 145.6 267.09 145.515 267.432 145.344C267.816 145.173 268.157 144.939 268.456 144.64C268.754 144.341 269.01 144.043 269.224 143.744V133.632C268.37 134.144 267.581 134.677 266.856 135.232C266.13 135.744 265.512 136.32 265 136.96C264.488 137.6 264.082 138.304 263.784 139.072C263.528 139.797 263.4 140.629 263.4 141.568C263.4 142.805 263.656 143.787 264.168 144.512C264.68 145.237 265.384 145.6 266.28 145.6ZM285.389 152V100.16H295.757V128.896L304.845 115.008H316.557L306.701 130.176L316.429 152H305.037L298.509 134.4L295.757 137.92V152H285.389ZM326.542 152.64C325.049 152.64 323.769 152.277 322.702 151.552C321.678 150.784 320.91 149.739 320.398 148.416C319.886 147.093 319.63 145.621 319.63 144V115.008H330.062V142.784C330.062 143.68 330.211 144.384 330.51 144.896C330.851 145.365 331.427 145.6 332.238 145.6C332.707 145.6 333.198 145.493 333.71 145.28C334.222 145.024 334.755 144.747 335.31 144.448V115.008H345.678V152H335.31V148.608C333.987 149.845 332.579 150.827 331.086 151.552C329.635 152.277 328.121 152.64 326.542 152.64ZM370.632 152.64C369.267 152.64 367.901 152.341 366.536 151.744C365.213 151.104 363.933 150.251 362.696 149.184V152H352.264V100.16H362.696V117.696C363.976 116.587 365.299 115.755 366.664 115.2C368.072 114.645 369.437 114.368 370.76 114.368C372.168 114.368 373.363 114.645 374.344 115.2C375.368 115.755 376.2 116.544 376.84 117.568C377.48 118.549 377.949 119.701 378.248 121.024C378.547 122.347 378.696 123.755 378.696 125.248V141.184C378.696 143.488 378.376 145.493 377.736 147.2C377.139 148.907 376.243 150.251 375.048 151.232C373.853 152.171 372.381 152.64 370.632 152.64ZM365.576 145.92C366.259 145.92 366.792 145.728 367.176 145.344C367.56 144.96 367.837 144.469 368.008 143.872C368.179 143.232 368.264 142.528 368.264 141.76V124.48C368.264 123.755 368.179 123.115 368.008 122.56C367.837 121.963 367.56 121.493 367.176 121.152C366.835 120.811 366.344 120.64 365.704 120.64C365.149 120.64 364.616 120.768 364.104 121.024C363.635 121.237 363.165 121.515 362.696 121.856V144.896C363.165 145.195 363.635 145.451 364.104 145.664C364.616 145.835 365.107 145.92 365.576 145.92ZM396.799 152.64C394.154 152.64 391.85 152.192 389.887 151.296C387.967 150.4 386.474 149.056 385.407 147.264C384.383 145.472 383.871 143.232 383.871 140.544V126.464C383.871 123.776 384.383 121.536 385.407 119.744C386.474 117.952 387.967 116.608 389.887 115.712C391.85 114.816 394.154 114.368 396.799 114.368C399.444 114.368 401.727 114.816 403.647 115.712C405.61 116.608 407.124 117.952 408.191 119.744C409.258 121.536 409.791 123.776 409.791 126.464V140.544C409.791 143.232 409.258 145.472 408.191 147.264C407.124 149.056 405.61 150.4 403.647 151.296C401.727 152.192 399.444 152.64 396.799 152.64ZM396.863 145.728C397.546 145.728 398.079 145.557 398.463 145.216C398.847 144.832 399.103 144.32 399.231 143.68C399.402 142.997 399.487 142.187 399.487 141.248V125.76C399.487 124.821 399.402 124.032 399.231 123.392C399.103 122.709 398.847 122.197 398.463 121.856C398.079 121.472 397.546 121.28 396.863 121.28C396.18 121.28 395.647 121.472 395.263 121.856C394.879 122.197 394.602 122.709 394.431 123.392C394.26 124.032 394.175 124.821 394.175 125.76V141.248C394.175 142.187 394.26 142.997 394.431 143.68C394.602 144.32 394.879 144.832 395.263 145.216C395.647 145.557 396.18 145.728 396.863 145.728Z" fill="url(#paint0_linear_106_15)"/>
<path d="M40.512 15.768H54.24V84.312H40.512V15.768ZM8.736 15.384V9.528L23.52 15.384H77.28V18.072H22.464V89.304C22.464 90.936 16.896 94.296 10.944 94.296H8.736V15.384ZM73.248 15.384H72.288L78.72 8.27999L91.104 18.168C90.432 19.032 89.28 19.8 87.36 20.28V89.208C87.168 90.168 80.64 93.24 75.456 93.24H73.248V15.384ZM16.992 48.504H78.24V51.192H16.992V48.504ZM16.992 82.584H78.24V85.272H16.992V82.584ZM132.288 47.16H167.52L173.568 40.248C173.568 40.248 180.384 44.952 184.704 48.312C184.416 49.368 183.36 49.848 182.016 49.848H133.056L132.288 47.16ZM126.24 60.408H171.36L177.408 52.92C177.408 52.92 184.32 58.008 188.448 61.56C188.256 62.616 187.2 63.096 185.856 63.096H127.008L126.24 60.408ZM110.496 37.848C135.744 36.888 126.24 56.28 115.584 49.656C114.72 45.528 112.032 41.016 109.824 38.328L110.496 37.848ZM101.568 49.176C126.144 51.96 115.296 70.008 105.504 62.52C105.12 57.912 102.816 52.92 100.8 49.656L101.568 49.176ZM148.704 37.56L164.832 38.808C164.736 40.056 164.16 40.92 161.76 41.304V61.368H148.704V37.56ZM128.928 75H170.016L175.968 67.992C175.968 67.992 182.784 72.696 187.008 76.152C186.72 77.208 185.76 77.688 184.32 77.688H129.696L128.928 75ZM124.128 90.936H172.8L178.848 83.448C178.848 83.448 185.664 88.536 189.888 92.088C189.6 93.144 188.544 93.624 187.2 93.624H124.896L124.128 90.936ZM148.704 63.864L164.736 65.208C164.64 66.36 163.968 67.224 161.664 67.608V92.664H148.704V63.864ZM105.216 73.176C107.136 73.176 107.52 73.176 108.96 71.544C111.936 68.28 111.936 68.28 133.344 40.92L134.592 41.4C130.272 49.56 121.536 65.304 120 68.952C118.848 71.448 117.888 74.52 117.888 76.44C117.984 80.472 122.208 82.584 121.92 89.112C121.728 93.144 118.272 96.024 112.224 96.024C109.728 96.024 107.328 94.584 106.368 91.704C107.712 83.928 107.328 77.592 105.12 76.248C103.68 75.48 102.24 75 100.224 74.808V73.176C100.224 73.176 104.064 73.176 105.216 73.176ZM136.608 5.016L153.792 6.264C153.6 7.51199 153.024 8.37599 150.72 8.75999V17.112H136.608V5.016ZM113.184 9.528L114.24 9.432C119.808 21.24 116.064 29.784 110.112 31.704C105.984 33.048 101.28 31.032 100.32 26.328C99.552 21.72 102.528 18.936 106.368 17.592C109.728 16.536 113.376 13.464 113.184 9.528ZM169.92 15.576H168.864L175.776 8.664L187.584 19.8C186.816 20.664 185.952 20.952 183.936 21.048C179.52 22.872 172.224 24.696 167.04 25.464L166.368 24.888C167.712 22.296 169.248 18.168 169.92 15.576ZM112.032 15.576H177.792V18.264H112.032V15.576ZM147.84 16.056H160.8C160.8 17.112 160.8 18.264 160.8 19.128V25.944C160.8 27 160.992 27.384 163.104 27.384H169.728C171.648 27.384 173.856 27.384 175.008 27.288C176.064 27.288 177.12 27.096 177.792 26.712C178.656 26.136 180.096 24.792 181.536 22.584H182.4L182.88 26.616C186.144 27.768 187.008 29.112 187.008 31.128C187.008 35.448 183.264 36.888 168 36.888H159.648C149.472 36.888 147.84 34.68 147.84 27.48V16.056ZM127.488 16.344H142.656C139.296 31.512 124.512 37.944 102.528 40.536L102.24 39.384C117.888 34.68 125.856 27.768 127.488 16.344ZM217.44 69.24H261.696V71.928H217.44V69.24ZM217.44 58.872H261.696V61.56H217.44V58.872ZM217.44 48.888H261.696V51.576H217.44V48.888ZM254.4 39H253.536L259.392 32.856L271.008 41.688C270.528 42.264 269.568 42.936 268.032 43.224V70.776C268.032 71.64 261.504 74.52 256.8 74.52H254.4V39ZM211.872 39V33.528L226.08 39H264V41.688H225.312V72.504C225.312 73.848 219.36 76.728 213.792 76.728H211.872V39ZM210.336 29.016H256.32L262.368 21.528C262.368 21.528 269.184 26.616 273.408 30.168C273.12 31.224 272.064 31.704 270.72 31.704H211.104L210.336 29.016ZM222.624 19.32L237.312 20.76C237.12 21.816 236.544 22.584 234.624 22.968V40.248C234.624 40.248 229.92 40.248 225.792 40.248H222.624V19.32ZM242.688 19.32L257.568 20.856C257.472 21.816 256.8 22.68 254.88 22.968V40.248C254.88 40.248 250.08 40.248 245.952 40.248H242.688V19.32ZM207.264 15.48H274.848V18.168H207.264V15.48ZM232.992 4.82399L250.368 6.07199C250.176 7.41599 249.6 8.37599 246.912 8.75999V17.304H232.992V4.82399ZM207.36 8.568L208.512 8.472C214.464 20.472 212.256 29.4 207.36 32.376C203.904 34.584 198.624 33.24 197.088 28.824C195.84 24.504 198.336 21.336 201.984 19.704C204.672 17.88 208.032 13.272 207.36 8.568ZM268.704 15.48H267.648L273.984 9.144L284.928 19.512C284.16 20.28 283.2 20.568 281.184 20.664C277.632 23.256 271.584 26.52 266.976 28.248L266.208 27.576C267.264 24.216 268.32 18.744 268.704 15.48ZM223.872 69.24H238.464C235.872 86.808 220.224 93.912 193.92 96.408L193.632 95.16C213.216 90.36 222.336 82.968 223.872 69.24ZM242.304 69.24H255.072C255.072 70.2 255.072 71.544 255.072 72.408V81.528C255.072 82.68 255.36 82.968 257.76 82.968H265.632C268.032 82.968 270.432 82.968 271.776 82.968C273.024 82.872 273.504 82.584 274.176 81.72C275.328 80.184 276.768 76.824 278.976 71.352H280.032L280.224 82.008C283.584 83.352 284.256 84.792 284.256 87.192C284.256 92.088 280.032 94.392 264.096 94.392H254.688C244.224 94.392 242.304 92.28 242.304 84.312V69.24ZM297.792 27.96H359.904V30.648H298.656L297.792 27.96ZM328.608 7.03199L346.56 8.37599C346.368 9.71999 345.696 10.68 343.008 11.064V29.016H328.608V7.03199ZM355.008 27.96H353.664L361.728 20.472L374.208 31.704C373.536 32.856 372.576 33.144 369.984 33.336C358.56 51.096 338.208 65.976 313.152 73.656L312.576 72.6C330.24 61.752 347.328 44.376 355.008 27.96ZM310.848 68.856C308.448 74.52 304.128 84.12 301.728 88.824C302.688 90.456 302.304 91.992 301.248 92.952L291.84 82.104C296.352 78.936 304.128 72.696 308.448 68.472L309.504 60.312L315.84 61.848L310.848 68.856ZM310.848 68.76C317.76 79.032 328.608 80.472 350.112 80.472C357.12 80.472 374.112 80.472 381.696 80.28V81.336C377.088 82.584 374.976 87.576 374.88 93.048C369.504 93.048 355.392 93.048 349.824 93.048C327.264 93.048 316.32 88.344 310.176 69.144L310.848 68.76Z" fill="white"/>
<defs>
<linearGradient id="paint0_linear_106_15" x1="288" y1="81" x2="288" y2="165" gradientUnits="userSpaceOnUse">
<stop stop-color="#310A65"/>
<stop offset="1" stop-color="white"/>
</linearGradient>
</defs>
</svg>
