<svg viewBox="0 0 403 83" fill="none" xmlns="http://www.w3.org/2000/svg">
<path d="M2.01495 75.6535V49.747H7.73998V60.2375H11.7379V49.747H17.4949V75.6535H11.7379V64.3314H7.73998V75.6535H2.01495ZM21.1842 75.6535V57.1671H26.3975V75.6535H21.1842ZM21.1523 54.0327V50.4186H26.3975V54.0327H21.1523ZM29.6806 75.6535V57.1671H34.8939V60.2375C35.4909 59.1714 36.0879 58.3612 36.6849 57.8068C37.282 57.2311 38.0069 56.9432 38.8598 56.9432C39.0304 56.9432 39.1797 56.9539 39.3076 56.9752C39.4355 56.9752 39.5528 56.9965 39.6594 57.0392V62.2205C39.4249 62.1139 39.1583 62.0286 38.8598 61.9646C38.5826 61.8793 38.2841 61.8367 37.9643 61.8367C37.3673 61.8367 36.8129 61.9966 36.3011 62.3164C35.7894 62.6363 35.3203 63.0734 34.8939 63.6277V75.6535H29.6806ZM47.9371 75.9733C46.6151 75.9733 45.4637 75.7495 44.4829 75.3017C43.5234 74.8539 42.7771 74.1823 42.2441 73.2867C41.7323 72.3912 41.4765 71.2718 41.4765 69.9285V62.8921C41.4765 61.5488 41.7323 60.4294 42.2441 59.5339C42.7771 58.6383 43.5234 57.9667 44.4829 57.5189C45.4637 57.0712 46.6151 56.8473 47.9371 56.8473C49.2591 56.8473 50.3998 57.0712 51.3593 57.5189C52.3401 57.9667 53.0971 58.6383 53.6301 59.5339C54.1632 60.4294 54.4297 61.5488 54.4297 62.8921V69.9285C54.4297 71.2718 54.1632 72.3912 53.6301 73.2867C53.0971 74.1823 52.3401 74.8539 51.3593 75.3017C50.3998 75.7495 49.2591 75.9733 47.9371 75.9733ZM47.9691 72.5191C48.3102 72.5191 48.5768 72.4338 48.7687 72.2633C48.9606 72.0714 49.0885 71.8155 49.1525 71.4957C49.2378 71.1545 49.2804 70.7494 49.2804 70.2803V62.5403C49.2804 62.0712 49.2378 61.6768 49.1525 61.3569C49.0885 61.0158 48.9606 60.7599 48.7687 60.5893C48.5768 60.3974 48.3102 60.3015 47.9691 60.3015C47.6279 60.3015 47.3614 60.3974 47.1695 60.5893C46.9776 60.7599 46.839 61.0158 46.7537 61.3569C46.6684 61.6768 46.6258 62.0712 46.6258 62.5403V70.2803C46.6258 70.7494 46.6684 71.1545 46.7537 71.4957C46.839 71.8155 46.9776 72.0714 47.1695 72.2633C47.3614 72.4338 47.6279 72.5191 47.9691 72.5191ZM57.8327 81.0267V77.4126C58.4937 77.4126 59.0374 77.3699 59.4639 77.2847C59.9116 77.1994 60.2421 77.0395 60.4554 76.8049C60.6899 76.5704 60.8072 76.2505 60.8072 75.8454C60.8072 75.4829 60.7432 75.0458 60.6153 74.5341C60.4873 74.001 60.3274 73.404 60.1355 72.743L55.7858 57.1671H60.6792L63.014 67.8496L64.7731 57.1671H69.6986L65.4448 76.1013C65.1676 77.3806 64.7305 78.3721 64.1334 79.0757C63.5364 79.8007 62.8008 80.3018 61.9266 80.5789C61.0737 80.8775 60.1035 81.0267 59.0161 81.0267H57.8327ZM74.9196 75.9733C74.1733 75.9733 73.5336 75.7921 73.0006 75.4296C72.4889 75.0458 72.1051 74.5234 71.8492 73.8624C71.5933 73.2014 71.4654 72.4658 71.4654 71.6556V57.1671H76.6787V71.0479C76.6787 71.4957 76.7533 71.8475 76.9026 72.1033C77.0731 72.3379 77.361 72.4552 77.7661 72.4552C78.0007 72.4552 78.2459 72.4019 78.5017 72.2952C78.7576 72.1673 79.0241 72.0287 79.3013 71.8795V57.1671H84.4826V75.6535H79.3013V73.9584C78.6403 74.5767 77.9367 75.0671 77.1904 75.4296C76.4655 75.7921 75.7085 75.9733 74.9196 75.9733ZM87.7739 75.6535V49.747H92.9552V64.1075L97.4969 57.1671H103.35L98.4244 64.7472L103.286 75.6535H97.5928L94.3305 66.8581L92.9552 68.6172V75.6535H87.7739ZM105.109 75.6535V57.1671H110.323V75.6535H105.109ZM105.077 54.0327V50.4186H110.323V54.0327H105.077ZM116.164 75.6535V54.0007H112.262V49.747H125.791V54.0007H121.921V75.6535H116.164ZM131.216 75.9733C130.277 75.9733 129.488 75.7495 128.849 75.3017C128.209 74.8539 127.729 74.2889 127.41 73.6066C127.09 72.9029 126.93 72.1886 126.93 71.4637C126.93 70.3123 127.154 69.3421 127.601 68.5532C128.071 67.7643 128.678 67.1033 129.425 66.5702C130.171 66.0372 130.992 65.5894 131.887 65.2269C132.783 64.8431 133.668 64.502 134.542 64.2034V62.3484C134.542 62.0286 134.51 61.7514 134.446 61.5168C134.382 61.261 134.275 61.0691 134.126 60.9411C133.977 60.7919 133.753 60.7173 133.454 60.7173C133.156 60.7173 132.921 60.7812 132.751 60.9092C132.602 61.0371 132.495 61.2183 132.431 61.4529C132.367 61.6661 132.324 61.9113 132.303 62.1885L132.175 63.5318L127.314 63.3399C127.42 61.1224 128.007 59.4912 129.073 58.4464C130.16 57.3803 131.781 56.8473 133.934 56.8473C135.811 56.8473 137.207 57.3697 138.124 58.4145C139.062 59.4379 139.531 60.7706 139.531 62.4124V71.0479C139.531 71.8155 139.542 72.4871 139.563 73.0628C139.606 73.6385 139.649 74.1396 139.691 74.5661C139.755 74.9925 139.808 75.355 139.851 75.6535H135.182C135.118 75.1631 135.043 74.63 134.958 74.0543C134.872 73.4786 134.808 73.1375 134.766 73.0309C134.553 73.7985 134.147 74.4808 133.55 75.0778C132.975 75.6748 132.196 75.9733 131.216 75.9733ZM133.071 72.4552C133.284 72.4552 133.476 72.4125 133.646 72.3272C133.838 72.2419 134.009 72.1247 134.158 71.9754C134.307 71.8262 134.435 71.6769 134.542 71.5276V66.4743C134.115 66.7301 133.721 66.9967 133.358 67.2739C132.996 67.5297 132.687 67.8176 132.431 68.1374C132.175 68.4572 131.973 68.8091 131.823 69.1929C131.695 69.5553 131.631 69.9711 131.631 70.4402C131.631 71.0586 131.759 71.549 132.015 71.9114C132.271 72.2739 132.623 72.4552 133.071 72.4552ZM142.62 75.6535V49.747H147.802V64.1075L152.343 57.1671H158.196L153.271 64.7472L158.132 75.6535H152.439L149.177 66.8581L147.802 68.6172V75.6535H142.62ZM163.186 75.9733C162.44 75.9733 161.8 75.7921 161.267 75.4296C160.756 75.0458 160.372 74.5234 160.116 73.8624C159.86 73.2014 159.732 72.4658 159.732 71.6556V57.1671H164.945V71.0479C164.945 71.4957 165.02 71.8475 165.169 72.1033C165.34 72.3379 165.628 72.4552 166.033 72.4552C166.267 72.4552 166.513 72.4019 166.768 72.2952C167.024 72.1673 167.291 72.0287 167.568 71.8795V57.1671H172.749V75.6535H167.568V73.9584C166.907 74.5767 166.203 75.0671 165.457 75.4296C164.732 75.7921 163.975 75.9733 163.186 75.9733ZM185.22 75.9733C184.537 75.9733 183.855 75.8241 183.173 75.5256C182.512 75.2057 181.872 74.7793 181.254 74.2462V75.6535H176.041V49.747H181.254V58.5104C181.894 57.956 182.555 57.5402 183.237 57.2631C183.94 56.9859 184.623 56.8473 185.284 56.8473C185.987 56.8473 186.584 56.9859 187.075 57.2631C187.587 57.5402 188.002 57.9347 188.322 58.4464C188.642 58.9369 188.877 59.5126 189.026 60.1735C189.175 60.8345 189.25 61.5382 189.25 62.2844V70.2483C189.25 71.3997 189.09 72.4019 188.77 73.2547C188.471 74.1076 188.024 74.7793 187.427 75.2697C186.83 75.7388 186.094 75.9733 185.22 75.9733ZM182.693 72.6151C183.034 72.6151 183.301 72.5191 183.493 72.3272C183.685 72.1353 183.823 71.8901 183.908 71.5916C183.994 71.2718 184.036 70.92 184.036 70.5362V61.9006C184.036 61.5382 183.994 61.2183 183.908 60.9411C183.823 60.6426 183.685 60.4081 183.493 60.2375C183.322 60.0669 183.077 59.9816 182.757 59.9816C182.48 59.9816 182.213 60.0456 181.957 60.1735C181.723 60.2802 181.488 60.4187 181.254 60.5893V72.1033C181.488 72.2526 181.723 72.3805 181.957 72.4871C182.213 72.5724 182.459 72.6151 182.693 72.6151ZM198.297 75.9733C196.975 75.9733 195.823 75.7495 194.842 75.3017C193.883 74.8539 193.137 74.1823 192.603 73.2867C192.092 72.3912 191.836 71.2718 191.836 69.9285V62.8921C191.836 61.5488 192.092 60.4294 192.603 59.5339C193.137 58.6383 193.883 57.9667 194.842 57.5189C195.823 57.0712 196.975 56.8473 198.297 56.8473C199.618 56.8473 200.759 57.0712 201.719 57.5189C202.7 57.9667 203.457 58.6383 203.99 59.5339C204.523 60.4294 204.789 61.5488 204.789 62.8921V69.9285C204.789 71.2718 204.523 72.3912 203.99 73.2867C203.457 74.1823 202.7 74.8539 201.719 75.3017C200.759 75.7495 199.618 75.9733 198.297 75.9733ZM198.328 72.5191C198.67 72.5191 198.936 72.4338 199.128 72.2633C199.32 72.0714 199.448 71.8155 199.512 71.4957C199.597 71.1545 199.64 70.7494 199.64 70.2803V62.5403C199.64 62.0712 199.597 61.6768 199.512 61.3569C199.448 61.0158 199.32 60.7599 199.128 60.5893C198.936 60.3974 198.67 60.3015 198.328 60.3015C197.987 60.3015 197.721 60.3974 197.529 60.5893C197.337 60.7599 197.198 61.0158 197.113 61.3569C197.028 61.6768 196.985 62.0712 196.985 62.5403V70.2803C196.985 70.7494 197.028 71.1545 197.113 71.4957C197.198 71.8155 197.337 72.0714 197.529 72.2633C197.721 72.4338 197.987 72.5191 198.328 72.5191Z" fill="url(#paint0_linear_121_15)"/>
<path d="M20.2455 7.57704H27.1059V41.8313H20.2455V7.57704ZM4.36573 7.38514V4.45866L11.7539 7.38514H38.6199V8.72845H11.2262V44.326C11.2262 45.1415 8.44362 46.8207 5.46916 46.8207H4.36573V7.38514ZM36.605 7.38514H36.1252L39.3396 3.83499L45.5284 8.77642C45.1925 9.2082 44.6168 9.592 43.6573 9.83187V44.278C43.5614 44.7577 40.2991 46.2929 37.7084 46.2929H36.605V7.38514ZM8.49159 23.9365H39.0997V25.2799H8.49159V23.9365ZM8.49159 40.9677H39.0997V42.311H8.49159V40.9677ZM66.1097 23.2649H83.7165L86.739 19.8107C86.739 19.8107 90.1452 22.1615 92.3041 23.8406C92.1601 24.3683 91.6324 24.6082 90.9608 24.6082H66.4935L66.1097 23.2649ZM63.0872 29.8855H85.6355L88.658 26.1434C88.658 26.1434 92.1122 28.6861 94.1751 30.4612C94.0791 30.9889 93.5514 31.2288 92.8798 31.2288H63.471L63.0872 29.8855ZM55.2193 18.6113C67.8368 18.1316 63.0872 27.8225 57.762 24.5123C57.3302 22.4493 55.9869 20.1945 54.8835 18.8512L55.2193 18.6113ZM50.7576 24.2724C63.0393 25.6637 57.6181 34.683 52.7246 30.9409C52.5327 28.6381 51.3813 26.1434 50.3738 24.5123L50.7576 24.2724ZM74.3134 18.4674L82.3732 19.0911C82.3252 19.7147 82.0374 20.1465 80.838 20.3384V30.3652H74.3134V18.4674ZM64.4305 37.1777H84.9639L87.9383 33.6755C87.9383 33.6755 91.3446 36.0263 93.4555 37.7534C93.3115 38.2811 92.8318 38.521 92.1122 38.521H64.8143L64.4305 37.1777ZM62.0318 45.1415H86.3552L89.3776 41.3995C89.3776 41.3995 92.7838 43.9422 94.8947 45.7172C94.7508 46.245 94.2231 46.4848 93.5514 46.4848H62.4156L62.0318 45.1415ZM74.3134 31.6126L82.3252 32.2842C82.2773 32.8599 81.9414 33.2917 80.79 33.4836V46.0051H74.3134V31.6126ZM52.5807 36.2661C53.5402 36.2661 53.7321 36.2661 54.4517 35.4506C55.939 33.8194 55.939 33.8194 66.6374 20.1465L67.2611 20.3864C65.1022 24.4643 60.7365 32.3322 59.9689 34.1552C59.3932 35.4026 58.9134 36.9378 58.9134 37.8973C58.9614 39.9123 61.0723 40.9677 60.9284 44.23C60.8324 46.245 59.1053 47.6842 56.0829 47.6842C54.8355 47.6842 53.6361 46.9646 53.1564 45.5253C53.828 41.6394 53.6361 38.473 52.5327 37.8014C51.8131 37.4175 51.0935 37.1777 50.086 37.0817V36.2661C50.086 36.2661 52.005 36.2661 52.5807 36.2661ZM68.2685 2.20384L76.8561 2.82751C76.7601 3.45119 76.4723 3.88296 75.3209 4.07486V8.2487H68.2685V2.20384ZM56.5626 4.45866L57.0904 4.41069C59.8729 10.3116 58.0019 14.5814 55.0274 15.5409C52.9645 16.2126 50.6137 15.2051 50.134 12.8543C49.7502 10.5515 51.2374 9.16022 53.1564 8.48857C54.8355 7.96085 56.6586 6.42564 56.5626 4.45866ZM84.9159 7.4811H84.3882L87.8424 4.02689L93.7433 9.592C93.3595 10.0238 92.9277 10.1677 91.9203 10.2157C89.7134 11.1272 86.0673 12.0387 83.4767 12.4225L83.1408 12.1347C83.8125 10.8394 84.5801 8.77642 84.9159 7.4811ZM55.9869 7.4811H88.8499V8.8244H55.9869V7.4811ZM73.8816 7.72097H80.3583C80.3583 8.2487 80.3583 8.8244 80.3583 9.25617V12.6624C80.3583 13.1901 80.4542 13.382 81.5097 13.382H84.82C85.7795 13.382 86.8829 13.382 87.4586 13.3341C87.9863 13.3341 88.514 13.2381 88.8499 13.0462C89.2816 12.7584 90.0013 12.0867 90.7209 10.9833H91.1527L91.3925 12.9982C93.0237 13.5739 93.4555 14.2456 93.4555 15.2531C93.4555 17.4119 91.5844 18.1316 83.9564 18.1316H79.7826C74.6972 18.1316 73.8816 17.0281 73.8816 13.43V7.72097ZM63.7109 7.86489H71.291C69.6119 15.445 62.2237 18.6593 51.2374 19.9546L51.0935 19.3789C58.9134 17.0281 62.8953 13.5739 63.7109 7.86489ZM108.664 34.2992H130.78V35.6425H108.664V34.2992ZM108.664 29.1179H130.78V30.4612H108.664V29.1179ZM108.664 24.1285H130.78V25.4718H108.664V24.1285ZM127.134 19.187H126.702L129.629 16.1166L135.434 20.5303C135.194 20.8182 134.714 21.154 133.946 21.2979V35.0668C133.946 35.4985 130.684 36.9378 128.333 36.9378H127.134V19.187ZM105.881 19.187V16.4524L112.981 19.187H131.931V20.5303H112.598V35.9303C112.598 36.602 109.623 38.0412 106.841 38.0412H105.881V19.187ZM105.113 14.1976H128.093L131.116 10.4555C131.116 10.4555 134.522 12.9982 136.633 14.7733C136.489 15.301 135.961 15.5409 135.29 15.5409H105.497L105.113 14.1976ZM111.254 9.35212L118.594 10.0717C118.498 10.5995 118.211 10.9833 117.251 11.1752V19.8107C117.251 19.8107 114.9 19.8107 112.837 19.8107H111.254V9.35212ZM121.281 9.35212L128.717 10.1197C128.669 10.5995 128.333 11.0313 127.374 11.1752V19.8107C127.374 19.8107 124.975 19.8107 122.912 19.8107H121.281V9.35212ZM103.578 7.43312H137.353V8.77642H103.578V7.43312ZM116.436 2.10788L125.119 2.73156C125.023 3.40321 124.735 3.88296 123.392 4.07486V8.34465H116.436V2.10788ZM103.626 3.97891L104.202 3.93094C107.176 9.92782 106.073 14.3895 103.626 15.8767C101.899 16.9802 99.2605 16.3085 98.4929 14.1017C97.8692 11.9428 99.1165 10.3596 100.94 9.54402C102.283 8.6325 103.962 6.32969 103.626 3.97891ZM134.282 7.43312H133.755L136.921 4.26676L142.39 9.44807C142.006 9.83187 141.527 9.9758 140.519 10.0238C138.744 11.3191 135.722 12.9503 133.419 13.8138L133.035 13.478C133.563 11.7989 134.09 9.06427 134.282 7.43312ZM111.878 34.2992H119.17C117.875 43.0786 110.055 46.6288 96.9097 47.8761L96.7657 47.2524C106.553 44.8537 111.11 41.1596 111.878 34.2992ZM121.089 34.2992H127.47C127.47 34.7789 127.47 35.4506 127.47 35.8823V40.44C127.47 41.0157 127.614 41.1596 128.813 41.1596H132.747C133.946 41.1596 135.146 41.1596 135.817 41.1596C136.441 41.1116 136.681 40.9677 137.017 40.5359C137.593 39.7683 138.312 38.0892 139.416 35.3546H139.943L140.039 40.6799C141.718 41.3515 142.054 42.0711 142.054 43.2705C142.054 45.7172 139.943 46.8686 131.979 46.8686H127.278C122.049 46.8686 121.089 45.8132 121.089 41.8313V34.2992ZM148.819 13.6699H179.859V15.0132H149.25L148.819 13.6699ZM164.219 3.21131L173.19 3.88296C173.094 4.55461 172.758 5.03437 171.415 5.22627V14.1976H164.219V3.21131ZM177.412 13.6699H176.74L180.77 9.92782L187.007 15.5409C186.671 16.1166 186.191 16.2605 184.896 16.3565C179.187 25.2319 169.016 32.668 156.495 36.506L156.207 35.9783C165.034 30.5571 173.574 21.8736 177.412 13.6699ZM155.343 34.1073C154.144 36.9378 151.985 41.7353 150.786 44.0861C151.265 44.9017 151.074 45.6693 150.546 46.149L145.844 40.7278C148.099 39.1447 151.985 36.0263 154.144 33.9154L154.672 29.8375L157.838 30.6051L155.343 34.1073ZM155.343 34.0593C158.798 39.1926 164.219 39.9123 174.965 39.9123C178.467 39.9123 186.959 39.9123 190.749 39.8163V40.344C188.446 40.9677 187.391 43.4624 187.343 46.197C184.656 46.197 177.604 46.197 174.821 46.197C163.547 46.197 158.078 43.8462 155.008 34.2512L155.343 34.0593Z" fill="white"/>
<path d="M212.919 76V50.0935H220.051C221.8 50.0935 223.314 50.2854 224.593 50.6692C225.872 51.053 226.864 51.7459 227.567 52.7481C228.292 53.7289 228.655 55.1255 228.655 56.9379C228.655 58.004 228.57 58.9529 228.399 59.7844C228.228 60.616 227.909 61.3409 227.439 61.9593C226.992 62.5563 226.341 63.0574 225.488 63.4625L229.039 76H223.122L220.275 64.39H218.644V76H212.919ZM218.644 61.0957H220.243C221.053 61.0957 221.682 60.9571 222.13 60.68C222.578 60.3814 222.887 59.9657 223.058 59.4326C223.25 58.8782 223.346 58.2172 223.346 57.4496C223.346 56.3409 223.143 55.4773 222.738 54.859C222.333 54.2406 221.587 53.9315 220.499 53.9315H218.644V61.0957ZM232.32 81.3732V77.7591C232.981 77.7591 233.525 77.7164 233.952 77.6312C234.399 77.5459 234.73 77.3859 234.943 77.1514C235.178 76.9169 235.295 76.597 235.295 76.1919C235.295 75.8294 235.231 75.3923 235.103 74.8806C234.975 74.3475 234.815 73.7505 234.623 73.0895L230.273 57.5136H235.167L237.502 68.1961L239.261 57.5136H244.186L239.932 76.4478C239.655 77.7271 239.218 78.7186 238.621 79.4222C238.024 80.1472 237.289 80.6483 236.414 80.9254C235.561 81.224 234.591 81.3732 233.504 81.3732H232.32ZM252.222 76.3198C250.9 76.3198 249.748 76.096 248.768 75.6482C247.808 75.2004 247.062 74.5288 246.529 73.6332C246.017 72.7377 245.761 71.6183 245.761 70.275V63.2386C245.761 61.8953 246.017 60.7759 246.529 59.8804C247.062 58.9848 247.808 58.3132 248.768 57.8654C249.748 57.4177 250.9 57.1938 252.222 57.1938C253.544 57.1938 254.685 57.4177 255.644 57.8654C256.625 58.3132 257.382 58.9848 257.915 59.8804C258.448 60.7759 258.714 61.8953 258.714 63.2386V70.275C258.714 71.6183 258.448 72.7377 257.915 73.6332C257.382 74.5288 256.625 75.2004 255.644 75.6482C254.685 76.096 253.544 76.3198 252.222 76.3198ZM252.254 72.8656C252.595 72.8656 252.862 72.7803 253.053 72.6098C253.245 72.4179 253.373 72.162 253.437 71.8422C253.522 71.501 253.565 71.0959 253.565 70.6268V62.8868C253.565 62.4177 253.522 62.0233 253.437 61.7034C253.373 61.3623 253.245 61.1064 253.053 60.9358C252.862 60.7439 252.595 60.648 252.254 60.648C251.913 60.648 251.646 60.7439 251.454 60.9358C251.262 61.1064 251.124 61.3623 251.038 61.7034C250.953 62.0233 250.911 62.4177 250.911 62.8868V70.6268C250.911 71.0959 250.953 71.501 251.038 71.8422C251.124 72.162 251.262 72.4179 251.454 72.6098C251.646 72.7803 251.913 72.8656 252.254 72.8656ZM261.638 76V50.0935H266.819V59.1448C267.501 58.4624 268.216 57.972 268.962 57.6735C269.708 57.3537 270.508 57.1938 271.361 57.1938C272.107 57.1938 272.725 57.3857 273.216 57.7695C273.727 58.1319 274.111 58.6437 274.367 59.3047C274.623 59.9443 274.751 60.68 274.751 61.5115V76H269.57V62.2471C269.57 61.7994 269.495 61.4582 269.346 61.2237C269.196 60.9891 268.919 60.8719 268.514 60.8719C268.301 60.8719 268.045 60.9358 267.747 61.0638C267.448 61.1704 267.139 61.3303 266.819 61.5435V76H261.638ZM283.923 76.3198C282.58 76.3198 281.429 76.0853 280.469 75.6162C279.51 75.1258 278.774 74.4222 278.262 73.5053C277.751 72.5671 277.495 71.4477 277.495 70.147V63.3666C277.495 62.0446 277.751 60.9252 278.262 60.0083C278.774 59.0914 279.51 58.3985 280.469 57.9294C281.45 57.439 282.601 57.1938 283.923 57.1938C285.288 57.1938 286.418 57.4283 287.314 57.8974C288.23 58.3665 288.913 59.0595 289.361 59.9763C289.83 60.8932 290.064 62.0233 290.064 63.3666V67.0766H282.644V70.6268C282.644 71.0959 282.697 71.4797 282.804 71.7782C282.911 72.0767 283.06 72.2899 283.252 72.4179C283.444 72.5458 283.668 72.6098 283.923 72.6098C284.179 72.6098 284.403 72.5565 284.595 72.4498C284.808 72.3219 284.968 72.13 285.075 71.8741C285.203 71.6183 285.267 71.2665 285.267 70.8187V68.8677H290.064V70.6588C290.064 72.5351 289.52 73.9531 288.433 74.9126C287.346 75.8507 285.842 76.3198 283.923 76.3198ZM282.644 64.6459H285.267V62.7909C285.267 62.3004 285.203 61.9166 285.075 61.6395C284.968 61.3623 284.808 61.1704 284.595 61.0638C284.403 60.9571 284.169 60.9038 283.891 60.9038C283.636 60.9038 283.412 60.9678 283.22 61.0957C283.049 61.2237 282.911 61.4476 282.804 61.7674C282.697 62.0659 282.644 62.503 282.644 63.0787V64.6459ZM292.934 76V57.5136H298.147V76H292.934ZM292.902 54.3792V50.7651H298.147V54.3792H292.902ZM301.654 76V50.0935H307.379V60.68L311.729 50.0935H317.326L312.529 61.7994L317.55 76H311.729L307.987 64.5499L307.379 65.5734V76H301.654ZM325.59 76.3198C324.268 76.3198 323.117 76.096 322.136 75.6482C321.176 75.2004 320.43 74.5288 319.897 73.6332C319.385 72.7377 319.129 71.6183 319.129 70.275V63.2386C319.129 61.8953 319.385 60.7759 319.897 59.8804C320.43 58.9848 321.176 58.3132 322.136 57.8654C323.117 57.4177 324.268 57.1938 325.59 57.1938C326.912 57.1938 328.053 57.4177 329.012 57.8654C329.993 58.3132 330.75 58.9848 331.283 59.8804C331.816 60.7759 332.083 61.8953 332.083 63.2386V70.275C332.083 71.6183 331.816 72.7377 331.283 73.6332C330.75 74.5288 329.993 75.2004 329.012 75.6482C328.053 76.096 326.912 76.3198 325.59 76.3198ZM325.622 72.8656C325.963 72.8656 326.23 72.7803 326.422 72.6098C326.613 72.4179 326.741 72.162 326.805 71.8422C326.891 71.501 326.933 71.0959 326.933 70.6268V62.8868C326.933 62.4177 326.891 62.0233 326.805 61.7034C326.741 61.3623 326.613 61.1064 326.422 60.9358C326.23 60.7439 325.963 60.648 325.622 60.648C325.281 60.648 325.014 60.7439 324.822 60.9358C324.63 61.1064 324.492 61.3623 324.407 61.7034C324.321 62.0233 324.279 62.4177 324.279 62.8868V70.6268C324.279 71.0959 324.321 71.501 324.407 71.8422C324.492 72.162 324.63 72.4179 324.822 72.6098C325.014 72.7803 325.281 72.8656 325.622 72.8656ZM334.974 76V57.5136H340.091V58.9848C340.774 58.3238 341.477 57.8548 342.202 57.5776C342.948 57.3004 343.705 57.1618 344.473 57.1618C345.219 57.1618 345.859 57.3537 346.392 57.7375C346.946 58.1 347.362 58.6437 347.639 59.3686C348.364 58.5584 349.121 57.9934 349.91 57.6735C350.72 57.3324 351.531 57.1618 352.341 57.1618C353.066 57.1618 353.695 57.343 354.228 57.7055C354.761 58.0467 355.177 58.5584 355.475 59.2407C355.774 59.9017 355.923 60.7013 355.923 61.6395V76H350.806V62.1832C350.806 61.6714 350.71 61.309 350.518 61.0957C350.347 60.8612 350.081 60.7439 349.718 60.7439C349.505 60.7439 349.238 60.8079 348.919 60.9358C348.599 61.0424 348.29 61.2024 347.991 61.4156C347.991 61.4582 347.991 61.5009 347.991 61.5435C347.991 61.5648 347.991 61.5968 347.991 61.6395V76H342.938V62.1832C342.938 61.6714 342.842 61.309 342.65 61.0957C342.458 60.8612 342.181 60.7439 341.818 60.7439C341.584 60.7439 341.307 60.8079 340.987 60.9358C340.688 61.0424 340.39 61.2024 340.091 61.4156V76H334.974ZM362.861 76.3198C361.923 76.3198 361.134 76.096 360.494 75.6482C359.855 75.2004 359.375 74.6354 359.055 73.9531C358.735 73.2494 358.575 72.5351 358.575 71.8102C358.575 70.6588 358.799 69.6886 359.247 68.8997C359.716 68.1108 360.324 67.4498 361.07 66.9167C361.816 66.3837 362.637 65.9359 363.533 65.5734C364.428 65.1896 365.313 64.8485 366.187 64.5499V62.6949C366.187 62.3751 366.155 62.0979 366.091 61.8633C366.027 61.6075 365.921 61.4156 365.772 61.2876C365.622 61.1384 365.398 61.0638 365.1 61.0638C364.801 61.0638 364.567 61.1277 364.396 61.2557C364.247 61.3836 364.14 61.5648 364.076 61.7994C364.013 62.0126 363.97 62.2578 363.949 62.535L363.821 63.8783L358.959 63.6864C359.066 61.4689 359.652 59.8377 360.718 58.7929C361.806 57.7268 363.426 57.1938 365.58 57.1938C367.456 57.1938 368.853 57.7162 369.77 58.761C370.708 59.7844 371.177 61.1171 371.177 62.7589V71.3944C371.177 72.162 371.187 72.8336 371.209 73.4093C371.251 73.985 371.294 74.4861 371.337 74.9126C371.401 75.339 371.454 75.7015 371.497 76H366.827C366.763 75.5096 366.688 74.9765 366.603 74.4008C366.518 73.8251 366.454 73.484 366.411 73.3774C366.198 74.145 365.793 74.8273 365.196 75.4243C364.62 76.0213 363.842 76.3198 362.861 76.3198ZM364.716 72.8017C364.929 72.8017 365.121 72.759 365.292 72.6737C365.484 72.5884 365.654 72.4712 365.804 72.3219C365.953 72.1727 366.081 72.0234 366.187 71.8741V66.8208C365.761 67.0766 365.366 67.3432 365.004 67.6204C364.642 67.8762 364.332 68.1641 364.076 68.4839C363.821 68.8037 363.618 69.1556 363.469 69.5394C363.341 69.9018 363.277 70.3176 363.277 70.7867C363.277 71.4051 363.405 71.8955 363.661 72.2579C363.917 72.6204 364.268 72.8017 364.716 72.8017ZM374.266 76V50.0935H379.447V64.454L383.989 57.5136H389.842L384.916 65.0937L389.778 76H384.085L380.823 67.2046L379.447 68.9637V76H374.266ZM391.601 76V57.5136H396.815V76H391.601ZM391.569 54.3792V50.7651H396.815V54.3792H391.569Z" fill="url(#paint1_linear_121_15)"/>
<path d="M242.712 14.5028C263.964 23.1383 258.16 39.9296 250.34 33.5009C249.284 27.0723 245.878 20.1639 242.232 14.7906L242.712 14.5028ZM220.787 13.7352L230.094 17.4293C229.902 17.909 229.47 18.3408 228.271 18.3408C225.201 24.6255 220.115 32.1097 212.199 36.6673L211.864 36.2835C216.661 29.9508 219.683 20.3558 220.787 13.7352ZM231.917 2.70093L240.936 3.5165C240.841 4.23613 240.361 4.71588 239.161 4.90778V39.3059C239.161 44.1034 237.962 46.7421 229.518 47.5097C229.279 45.1109 228.895 43.5277 227.743 42.3763C226.592 41.2729 225.297 40.5053 221.89 39.8816V39.3059C221.89 39.3059 229.279 39.6897 230.766 39.6897C231.629 39.6897 231.917 39.4019 231.917 38.7782V2.70093ZM283.874 1.5975L292.941 3.99625C292.75 4.61993 292.174 5.00373 291.022 5.05171C288.432 14.6947 284.402 21.6031 278.309 26.3526L277.781 26.0168C280.804 19.7801 283.25 10.5688 283.874 1.5975ZM285.026 14.3589C287.376 28.1757 294.045 36.6193 306.518 40.985L306.374 41.5128C303.064 42.2804 301.241 44.1994 300.426 47.4617C289.967 41.5128 286.129 30.4305 284.546 15.3184L285.026 14.3589ZM294.237 13.1115H302.249C300.234 28.1277 293.565 41.4168 275.239 47.5097L274.999 47.0779C288.336 38.9701 293.421 26.2087 294.237 13.1115ZM268.282 2.02927L276.534 2.84485C276.438 3.5165 276.102 3.99625 274.759 4.18815V45.3028C274.759 45.9745 271.976 47.5576 269.53 47.5576H268.282V2.02927ZM262.189 5.48348L269.817 7.21058C269.626 7.83426 269.05 8.26604 267.994 8.31401C266.459 14.2629 264.204 19.6841 260.99 23.4262L260.318 23.0903C261.374 18.3408 262.093 11.4804 262.189 5.48348ZM260.079 26.5925C263.293 25.729 271.736 23.0424 279.652 20.2118L279.796 20.6436C276.87 23.4262 271.928 27.552 264.684 32.6374C264.54 33.309 264.06 33.8847 263.437 34.1246L260.079 26.5925ZM263.293 14.2629H274.375L277.302 9.32149C277.302 9.32149 280.612 12.7277 282.291 14.8386C282.147 15.3663 281.667 15.6062 280.996 15.6062H263.293V14.2629ZM284.45 13.1115H296.444L299.994 8.02616C299.994 8.02616 303.976 11.4324 306.231 13.6872C306.087 14.2149 305.559 14.4548 304.839 14.4548H284.45V13.1115ZM310.212 40.2174C314.146 39.7857 323.31 38.3464 332.809 36.7153L332.905 37.243C329.403 39.4498 324.029 42.3763 315.538 46.3103C315.298 46.9819 314.77 47.4137 314.194 47.5576L310.212 40.2174ZM329.882 24.2897C333.241 35.4199 343.075 38.6343 354.35 40.1215L354.302 40.6972C351.471 41.4168 349.552 43.6237 348.689 46.934C338.278 43.5757 331.849 38.4424 329.307 24.6255L329.882 24.2897ZM344.563 25.585L351.183 31.1502C350.895 31.5819 350.368 31.8218 349.264 31.486C345.618 32.8773 340.533 34.3645 335.687 35.372L335.303 34.8442C338.614 32.2536 342.644 28.0797 344.563 25.585ZM316.209 8.55389V5.72336L323.933 8.55389H323.262V40.5053C323.262 40.6972 321.151 41.3209 317.505 41.3209H316.209V8.55389ZM319.28 8.55389H341.636V9.89719H319.28V8.55389ZM319.28 16.2299H341.828V17.5732H319.28V16.2299ZM319.184 24.0978H341.972V25.4411H319.184V24.0978ZM339.333 8.55389H338.854L341.972 5.14766L348.305 9.99314C347.969 10.3769 347.393 10.8087 346.386 11.0006V25.2492C346.338 25.681 342.979 27.1202 340.533 27.1202H339.333V8.55389ZM327.292 1.9813L335.879 2.60497C335.783 3.22865 335.495 3.66043 334.344 3.85233V9.36946H327.292V1.9813ZM362.361 10.0411C378.001 16.3258 370.997 29.1352 364.712 23.0424C364.664 18.6287 363.417 14.071 361.93 10.233L362.361 10.0411ZM356.173 27.8399H391.051L394.889 23.0903C394.889 23.0903 399.206 26.2567 401.845 28.4156C401.701 28.9433 401.125 29.1832 400.406 29.1832H356.556L356.173 27.8399ZM358.092 6.20311H389.132L392.97 1.5975C392.97 1.5975 397.287 4.6679 399.926 6.77881C399.782 7.30654 399.254 7.54641 398.535 7.54641H358.475L358.092 6.20311ZM375.075 6.63488H382.271V45.5907C382.271 46.0224 380.112 47.5097 376.418 47.5097H375.075V6.63488ZM389.179 9.84921L398.007 13.0156C397.815 13.5913 397.143 14.023 396.04 13.9271C392.874 18.5327 389.084 22.6106 385.198 25.4411L384.67 25.1053C386.157 21.3632 387.98 15.1744 389.179 9.84921Z" fill="white"/>
<defs>
<linearGradient id="paint0_linear_121_15" x1="103.196" y1="40.6535" x2="103.196" y2="82.6317" gradientUnits="userSpaceOnUse">
<stop stop-color="#310A65"/>
<stop offset="1" stop-color="white"/>
</linearGradient>
<linearGradient id="paint1_linear_121_15" x1="305" y1="41" x2="305" y2="83" gradientUnits="userSpaceOnUse">
<stop stop-color="#310A65"/>
<stop offset="1" stop-color="white"/>
</linearGradient>
</defs>
</svg>
