<svg viewBox="0 0 576 147" fill="none" xmlns="http://www.w3.org/2000/svg">
<path d="M2.02634 32.2167H59.0533L63.1783 26.4272C63.1783 26.4272 67.8823 30.3351 70.56 33.0852C70.3429 33.8812 69.6192 34.2431 68.606 34.2431H2.60529L2.02634 32.2167ZM2.75003 49.2235H59.0533L63.0336 43.1445C63.0336 43.1445 67.6652 47.3419 70.1258 50.1643C69.9087 50.9604 69.2574 51.3222 68.2442 51.3222H3.32898L2.75003 49.2235ZM25.1845 15.21H32.4938V49.9472H25.1845V15.21ZM37.7044 15.21H45.086V49.9472H37.7044V15.21ZM50.2966 15.21H57.8954V49.9472H50.2966V15.21ZM13.0265 15.21V12.2428L20.6252 15.21H20.3358V49.9472H13.0265V15.21ZM16.3554 3.63089L27.7898 8.04541C27.4279 8.91384 26.4871 9.42043 24.8226 9.34806C18.8884 18.1771 11.1449 24.6903 3.32898 28.6706L2.53292 28.0193C7.45403 22.4469 12.9541 13.0389 16.3554 3.63089ZM16.2107 15.21H55.5072L59.9217 9.27569C59.9217 9.27569 64.9152 13.3284 67.8823 16.1508C67.6652 16.9468 66.8692 17.3087 65.856 17.3087H16.2107V15.21ZM14.9804 53.2762H15.9936C18.5989 62.7566 14.7633 68.7632 10.4935 70.7895C7.81588 72.1646 4.34215 71.5132 3.40135 68.8356C2.67766 66.3026 4.26978 64.3487 6.51323 63.3355C10.2041 62.0329 14.4738 58.2697 14.9804 53.2762ZM24.4608 53.9999C39.3689 63.3355 30.5398 75.783 24.8226 68.9079C25.5463 64.1316 24.8226 58.4868 23.5924 54.2894L24.4608 53.9999ZM37.053 53.9999C56.1585 60.8026 49.0663 75.4212 42.0465 69.3422C41.8294 64.2763 39.0794 58.342 36.3294 54.3617L37.053 53.9999ZM50.8032 53.2038C75.6259 58.2697 70.3429 75.7106 61.8757 70.5001C60.1388 64.6382 54.8559 57.9078 50.1519 53.7104L50.8032 53.2038ZM80.9088 12.3152H96.3234L100.521 7.10461C100.521 7.10461 105.225 10.506 108.192 13.1836C107.975 13.9797 107.251 14.3415 106.166 14.3415H80.1127L80.9088 12.3152ZM73.0929 22.5916H98.205L102.258 17.3087C102.258 17.3087 106.889 20.9271 109.784 23.5324C109.567 24.2561 108.771 24.618 107.758 24.618H73.6719L73.0929 22.5916ZM83.4417 33.9536H98.9287L102.402 29.6838C102.402 29.6838 106.31 32.651 108.771 34.8944C108.626 35.6905 107.903 36.0523 106.889 36.0523H83.4417V33.9536ZM83.4417 43.2892H99.5077L102.764 38.8747C102.764 38.8747 106.383 41.9866 108.481 44.1577C108.337 44.9537 107.613 45.3156 106.672 45.3156H83.4417V43.2892ZM83.4417 52.6972H99.5077L102.764 48.3551C102.764 48.3551 106.383 51.3946 108.481 53.5657C108.337 54.3617 107.613 54.7236 106.672 54.7236H83.4417V52.6972ZM83.1522 62.4671H100.087L103.777 57.6907C103.777 57.6907 107.975 61.0197 110.435 63.3355C110.218 64.1316 109.495 64.4934 108.554 64.4934H83.1522V62.4671ZM87.1326 33.9536V67.0987C87.1326 67.6777 84.7444 69.4145 80.9088 69.4145H79.5338V36.8484L82.8628 31.9996L88.0734 33.9536H87.1326ZM91.7642 33.9536H98.784V63.6974H91.7642V33.9536ZM81.0535 3.41378L91.1129 6.8875C90.751 7.75594 89.8826 8.33489 88.2905 8.26252C84.9615 13.9073 80.4022 18.2495 75.5535 20.9995L74.685 20.3482C77.2903 16.2955 79.7509 9.85464 81.0535 3.41378ZM92.7774 25.3417L102.041 27.5127C101.751 28.3812 100.955 29.0325 99.4353 28.9601C97.6985 30.8417 95.0208 33.2299 92.5602 34.9668H91.4023C91.9813 32.3615 92.5602 28.1641 92.7774 25.3417ZM109.856 9.13095V5.72959L118.613 9.13095H128.094L132.146 4.49932L139.673 10.3612C139.094 11.0125 138.37 11.5191 136.705 11.8086V46.8353C136.705 47.2695 133.955 48.934 129.83 48.934H128.455V11.1573H117.745V47.9209C117.745 48.4998 115.284 50.0196 111.232 50.0196H109.856V9.13095ZM112.534 20.6377H133.376V22.7364H112.534V20.6377ZM112.534 32.3615H133.376V34.3878H112.534V32.3615ZM112.534 44.1577H133.376V46.2564H112.534V44.1577ZM123.172 44.23H130.626C130.626 44.9537 130.626 46.0393 130.626 46.5458V61.1644C130.626 62.0329 130.771 62.25 131.784 62.25H133.449C134.173 62.25 134.824 62.25 135.113 62.25C135.692 62.1776 135.909 62.1052 136.199 61.4539C136.778 60.3684 137.719 56.7499 138.877 52.842H139.673L139.89 61.7434C141.627 62.6118 141.844 63.5526 141.844 65.0724C141.844 68.1119 139.528 69.9935 132.653 69.9935H129.179C123.824 69.9935 123.172 68.4014 123.172 63.5526V44.23ZM87.2773 12.3876H96.9748C93.3563 24.7627 84.5996 36.3418 72.8034 43.434L72.2245 42.6379C80.0404 34.6049 85.6852 22.7364 87.2773 12.3876ZM113.403 44.809H121.291C120.278 58.9934 114.126 67.2434 98.2774 71.5132L97.9156 70.5724C109.784 64.5658 112.968 56.7499 113.403 44.809ZM162.324 49.0064H193.081V51.0327H162.324V49.0064ZM162.179 64.0592H193.081V66.0855H162.179V64.0592ZM167.68 23.1706H192.357V25.2693H165.653L167.68 23.1706ZM167.173 49.0064V69.0527C167.173 69.6316 164.64 71.4409 160.37 71.4409H158.923V49.7301L161.6 46.5458L168.114 49.0064H167.173ZM189.028 49.0064H188.377L192.14 44.9537L199.956 50.8156C199.594 51.3222 198.798 51.9012 197.496 52.1183V69.1974C197.423 69.6316 193.226 71.2238 190.476 71.2238H189.028V49.0064ZM186.568 23.1706H185.627L190.621 18.8284L197.93 25.7759C197.351 26.4996 196.555 26.7167 194.673 26.8614C184.397 40.6116 166.811 50.0196 144.449 53.7828L143.942 52.7696C162.614 46.9801 179.114 36.2694 186.568 23.1706ZM166.015 24.7627C174.265 36.6313 193.95 42.4208 211.825 44.4471L211.752 45.3156C208.279 46.1116 206.035 48.7893 205.167 52.6972C187.581 48.4998 172.528 40.4668 165.074 25.4864L166.015 24.7627ZM176.436 19.5521C170.502 27.4404 160.37 36.197 147.923 40.901L147.344 40.2497C156.896 33.6641 164.929 23.1706 168.403 15.3547L179.838 18.0324C179.548 18.9732 178.607 19.4798 176.436 19.5521ZM153.423 12.4599H204.588V14.4863H153.423V12.4599ZM173.469 3.63089L184.831 4.49932C184.759 5.51249 184.18 6.23618 182.226 6.52566V13.6902H173.469V3.63089ZM153.64 8.04541H154.653C157.765 16.7297 155.449 22.8811 152.12 25.1969C149.877 26.9338 146.331 26.4996 145.245 23.8943C144.304 21.5061 145.752 19.4074 147.85 18.1771C150.528 16.585 153.64 12.4599 153.64 8.04541ZM200.535 12.4599H199.739L204.081 8.04541L211.535 15.21C211.029 15.8613 210.233 16.006 208.713 16.0784C206.252 18.539 201.765 21.7956 198.364 23.6772L197.64 23.1706C198.726 20.2034 200.029 15.2823 200.535 12.4599ZM224.779 26.4272L225.792 25.9206C227.891 28.1641 229.266 29.5391 232.088 29.5391C236.43 29.5391 254.74 27.2233 260.312 26.2101C262.917 25.7035 263.931 24.2561 265.595 24.2561C268.562 24.2561 274.786 29.1772 274.786 32.072C274.786 33.9536 271.457 35.1115 269.865 38.0786C263.062 50.7433 251.049 63.046 229.7 69.2698L228.904 67.8224C246.707 58.4868 257.779 44.3748 261.832 32.651C262.121 31.7102 261.832 31.4207 261.036 31.4207C257.128 31.6378 242.437 34.4602 237.805 35.8352C235.707 36.4865 234.332 37.7892 232.739 37.7892C229.7 37.7892 226.009 33.3746 225.358 31.1312C224.851 29.5391 224.706 28.1641 224.779 26.4272ZM263.135 16.2231C257.345 17.5982 246.779 19.4074 240.555 19.4074C235.996 19.4074 233.608 16.7297 231.075 11.4468L231.799 10.7954C234.838 12.677 237.371 12.9665 239.759 12.9665C245.187 12.9665 249.384 11.6639 252.424 10.7954C256.115 9.85464 257.128 8.84147 258.213 8.84147C263.062 8.84147 266.174 10.3612 266.174 13.256C266.174 14.7034 265.45 15.6442 263.135 16.2231ZM321.227 8.98621L321.589 7.75594C323.615 7.68356 325.859 7.53883 328.102 8.19015C332.01 9.42043 336.352 13.4731 336.352 16.006C336.352 18.1771 334.616 18.1771 332.662 20.2034C329.477 23.3877 324.701 28.4535 318.984 33.447C314.786 37.0655 302.701 46.5458 288.589 51.1775L287.793 49.7301C303.135 40.901 318.188 25.5588 323.543 17.2363C324.846 15.2823 325.497 13.835 325.497 12.8942C325.497 11.5191 323.471 10.0717 321.227 8.98621ZM316.017 31.7825L319.563 28.8154C323.109 31.3483 326.438 33.2299 326.438 35.1115C326.438 36.3418 325.786 37.6444 325.714 39.7431C325.352 49.513 325.931 59.9342 325.931 63.625C325.931 66.6645 324.556 68.6908 321.879 68.6908C318.115 68.6908 316.451 65 316.451 61.3815C316.451 59.9342 316.885 58.2697 317.175 55.9538C318.043 48.7893 318.115 40.6839 318.043 37.4273C317.971 35.1115 317.319 33.7365 316.017 31.7825ZM410.222 17.4534C408.847 15.4994 407.11 12.8942 403.708 10.0717L404.36 9.05858C408.412 10.1441 411.814 11.4468 414.057 13.4731C415.649 14.9205 416.156 16.1508 416.156 17.5982C416.156 19.0455 415.07 20.2034 413.551 20.2034C412.393 20.2034 411.452 19.1903 410.222 17.4534ZM416.445 11.8086C415.143 10.1441 413.695 8.04541 409.86 5.15064L410.511 4.20984C414.636 5.0059 417.893 6.23618 419.919 7.75594C421.801 9.13095 422.524 10.5783 422.524 12.2428C422.524 13.7626 421.584 14.7758 420.136 14.7758C418.689 14.7758 417.893 13.6178 416.445 11.8086ZM367.379 19.7692C373.169 19.7692 391.478 17.8876 395.314 17.0192C398.353 16.3679 398.425 15.21 400.452 15.21C403.781 15.21 411.38 21.7956 411.38 24.4009C411.38 26.8614 408.702 27.6575 407.544 29.9733C398.86 47.6314 385.616 61.3092 362.168 68.8356L361.372 67.4606C381.129 57.1118 395.458 39.3089 399.004 23.3877C399.149 22.8087 398.86 22.5193 398.353 22.5193C393.432 22.5193 377.511 25.9206 373.386 27.0062C371.649 27.4404 369.84 28.8878 368.175 28.8878C364.991 28.8878 361.083 24.1838 360.359 21.4337C359.853 19.6245 359.853 18.3218 359.853 16.4402L360.938 16.006C362.892 18.0324 364.701 19.7692 367.379 19.7692ZM462.11 9.20332H485.486V11.302H462.762L462.11 9.20332ZM479.334 9.20332H478.538L482.374 5.0059L490.479 11.1573C489.972 11.8086 488.742 12.5323 487.078 12.8942V35.6905C487.005 36.197 483.17 37.5721 480.637 37.5721H479.334V9.20332ZM465.439 28.6706H484.038V30.7694H465.439V28.6706ZM462.472 28.6706V25.4864V25.3417L471.156 28.6706H470.216V59.717C470.216 60.9473 470.578 61.3815 472.749 61.3815H478.393C480.709 61.3815 482.591 61.3092 483.459 61.3092C484.328 61.2368 484.762 61.0197 485.196 60.296C485.92 58.921 487.078 54.7236 488.236 50.1643H489.104L489.321 60.7302C491.492 61.5986 491.999 62.5394 491.999 63.9868C491.999 67.2434 488.815 68.9803 477.742 68.9803H470.939C464.064 68.9803 462.472 67.4606 462.472 61.8158V28.6706ZM423.393 9.27569H449.59L453.716 3.848C453.716 3.848 458.42 7.6112 461.242 10.1441C461.025 10.9402 460.301 11.302 459.288 11.302H423.972L423.393 9.27569ZM428.676 50.309H454.15V52.3354H428.676V50.309ZM428.893 62.3947H454.439V64.421H428.893V62.3947ZM450.387 21.9403H449.663L453.209 18.0324L460.373 23.6772C459.939 24.2561 458.998 24.7627 457.623 25.0522V67.8224C457.551 68.4014 454.077 70.0658 451.544 70.0658H450.387V21.9403ZM442.571 9.34806H448.36V22.664H442.571V9.34806ZM442.571 22.0127H447.13C447.13 22.8087 447.13 23.6048 447.13 24.1114V36.3418C447.13 37.0655 447.275 37.2826 447.709 37.2826H448.505C448.794 37.2826 449.084 37.2826 449.373 37.2826C449.59 37.2826 449.88 37.2826 450.097 37.2826C450.387 37.2102 450.893 37.1378 451.255 37.0655H451.834L452.123 37.1378C453.426 37.5721 454.005 38.0786 454.005 39.3089C454.005 41.3353 452.485 42.2761 448.071 42.2761H446.261C443.005 42.2761 442.571 41.1182 442.571 38.2234V22.0127ZM425.347 21.9403V18.7561L432.728 21.9403H454.294V23.9666H432.294V68.6908C432.294 69.4869 429.617 71.2238 426.505 71.2238H425.347V21.9403ZM439.821 22.0127V26.789C439.821 31.8549 439.242 39.8879 432.873 45.0985L432.005 44.1577C435.406 38.5129 435.334 31.7825 435.334 26.7167V22.0127H439.821ZM439.821 9.34806V22.664H434.103V9.34806H439.821ZM516.243 19.6245H550.546L555.032 13.5455C555.032 13.5455 560.171 17.6705 563.138 20.4929C562.921 21.289 562.197 21.6508 561.111 21.6508H516.821L516.243 19.6245ZM522.104 9.63753H544.756L549.098 3.77563C549.098 3.77563 553.947 7.75594 556.842 10.5783C556.697 11.302 555.901 11.6639 554.815 11.6639H522.683L522.104 9.63753ZM520.729 29.2496H546.999L551.197 23.6048C551.197 23.6048 555.901 27.5127 558.723 30.1904C558.506 30.9865 557.782 31.3483 556.769 31.3483H521.308L520.729 29.2496ZM520.729 38.9471H546.999L551.197 33.3023C551.197 33.3023 555.901 37.2102 558.723 39.8879C558.506 40.6839 557.782 41.0458 556.769 41.0458H521.308L520.729 38.9471ZM525.144 63.5526H552.934V65.579H525.144V63.5526ZM520.947 48.4998V45.0985L529.776 48.4998H553.078V50.5985H529.341V68.4014C529.341 69.1974 525.651 71.0066 522.177 71.0066H520.947V48.4998ZM548.302 48.4998H547.578L551.414 44.23L559.664 50.4538C559.23 50.9604 558.217 51.6841 556.769 51.9012V68.2566C556.697 68.7632 552.572 70.5001 549.677 70.5001H548.302V48.4998ZM502.709 27.1509L506.038 22.8811L513.492 25.5588C513.275 26.2101 512.552 26.7167 511.249 27.0062V68.9079C511.104 69.5593 507.631 71.3685 504.302 71.3685H502.709V27.1509ZM507.92 3.55852L519.789 7.10461C519.499 8.04541 518.558 8.62436 516.894 8.62436C511.321 23.1706 503.723 35.1839 494.242 43.2892L493.374 42.7103C498.946 33.1575 504.881 17.8153 507.92 3.55852Z" fill="white"/>
<path d="M25.9806 99.1977H58.4743L62.8889 92.8292C62.8889 92.8292 67.8823 97.2437 70.7047 100.139C70.4876 100.935 69.7639 101.296 68.7508 101.296H26.5595L25.9806 99.1977ZM26.4148 111.139H60.5007L64.2639 105.277C64.2639 105.277 68.606 109.329 70.9218 112.007C70.7771 112.803 70.0534 113.165 69.0403 113.165H26.9937L26.4148 111.139ZM30.0332 85.8818H56.1585L60.3559 79.8751C60.3559 79.8751 65.1323 84.0002 67.81 86.7502C67.5929 87.5463 66.8692 87.9081 65.856 87.9081H30.6122L30.0332 85.8818ZM42.7702 74.954L53.7703 75.8948C53.6256 76.908 53.0467 77.6317 51.0927 77.9211V99.849H42.7702V74.954ZM51.3822 101.875L62.2375 102.816C62.0204 103.902 61.3691 104.481 59.7046 104.698V132.994C59.7046 138.711 58.3296 141.968 48.1255 142.836C47.8361 140.231 47.3295 138.349 45.9545 137.047C44.5071 135.817 42.6255 134.948 38.2833 134.297V133.284C38.2833 133.284 47.9808 133.863 49.79 133.863C51.0203 133.863 51.3822 133.428 51.3822 132.56V101.875ZM30.8293 114.685C51.0203 118.448 44.0005 133.139 36.4017 127.566C35.6057 123.224 32.7109 118.303 30.178 115.119L30.8293 114.685ZM13.9673 74.954L24.4608 75.9672C24.2437 76.9803 23.7371 77.704 21.7831 77.9935V139.942C21.7831 140.882 18.4542 142.836 15.487 142.836H13.9673V74.954ZM5.6448 80.237L15.3423 82.3357C15.1252 83.2041 14.3291 83.9278 12.737 84.0002C10.8554 92.7568 7.88825 100.935 3.32898 106.435L2.24345 105.856C4.26978 98.9082 5.50006 89.1384 5.6448 80.237ZM1.73686 112.152C6.80271 111.211 19.8292 108.244 32.5662 104.987L32.7833 105.856C27.5727 109.257 19.395 114.033 7.59877 119.968C7.16455 120.836 6.44086 121.632 5.6448 121.922L1.73686 112.152ZM7.5264 92.9739H22.0726L26.1253 86.6055C26.1253 86.6055 30.7569 91.02 33.2898 93.8424C33.0727 94.6384 32.349 95.0003 31.3359 95.0003H7.5264V92.9739ZM111.521 79.8751H125.995V81.9015H111.521V79.8751ZM107.034 79.8751V79.1514V76.6185L116.08 79.8751H114.778V85.4475C114.778 91.3095 113.475 100.862 101.679 106.218L101.172 105.494C106.528 99.3424 107.034 91.5266 107.034 85.4475V79.8751ZM122.304 79.8751H121.58L125.344 75.7501L132.291 81.4672C131.857 81.9015 131.205 82.3357 130.048 82.5528V93.6976C130.048 94.4937 130.192 94.7108 131.061 94.7108H132.798C133.521 94.7108 134.173 94.7108 134.462 94.6384C134.969 94.6384 135.186 94.5661 135.548 93.9147C136.054 92.9016 137.067 89.7173 138.225 85.8818H139.021L139.238 94.2042C140.975 95.0727 141.265 95.9411 141.265 97.3885C141.265 100.283 138.515 101.948 131.857 101.948H128.383C122.955 101.948 122.304 100.356 122.304 95.5792V79.8751ZM102.185 107.81H129.034V109.836H102.837L102.185 107.81ZM125.705 107.81H124.765L129.541 103.25L137.429 110.198C136.923 110.922 136.199 111.139 134.462 111.283C128.89 126.119 117.672 137.481 97.1195 142.764L96.6853 141.823C112.462 134.803 122.015 122.501 125.705 107.81ZM108.481 107.882C113.33 123.659 126.719 130.823 142.061 134.442L141.916 135.238C138.37 135.961 135.765 138.639 134.534 142.764C120.278 136.613 111.376 127.349 107.468 108.389L108.481 107.882ZM76.7838 80.1646H90.3168L94.1524 75.2435C94.1524 75.2435 98.4222 78.6448 101.027 81.033C100.883 81.8291 100.087 82.1909 99.0735 82.1909H77.3627L76.7838 80.1646ZM76.4219 98.6187H90.5339L94.1524 93.9147C94.1524 93.9147 98.3498 97.1714 100.81 99.5595C100.593 100.356 99.9419 100.645 98.9287 100.645H77.0009L76.4219 98.6187ZM76.4219 108.027H90.4615L94.08 103.323C94.08 103.323 98.2774 106.579 100.81 108.895C100.593 109.691 99.8695 110.053 98.8564 110.053H77.0009L76.4219 108.027ZM72.8034 89.2107H94.2971L98.1327 84.362C98.1327 84.362 102.475 87.691 105.08 90.1515C104.863 90.9476 104.139 91.3095 103.126 91.3095H73.3824L72.8034 89.2107ZM76.4943 117.724V114.54L84.3825 117.724H95.455V119.823H84.093V140.086C84.093 140.81 80.7641 142.547 77.5798 142.547H76.4943V117.724ZM92.0537 117.724H91.33L94.9484 113.816L102.547 119.533C102.113 120.112 101.172 120.691 99.8695 120.981V137.698C99.7972 138.277 95.9616 139.869 93.3563 139.869H92.0537V117.724ZM80.2575 133.501H95.3826V135.527H80.2575V133.501ZM188.088 93.6253C188.088 88.9213 191.923 85.0857 196.7 85.0857C201.404 85.0857 205.239 88.9213 205.239 93.6253C205.239 98.4016 201.404 102.237 196.7 102.237C191.923 102.237 188.088 98.4016 188.088 93.6253ZM191.055 93.6253C191.055 96.7371 193.588 99.2701 196.7 99.2701C199.811 99.2701 202.272 96.7371 202.272 93.6253C202.272 90.5134 199.811 88.0528 196.7 88.0528C193.588 88.0528 191.055 90.5134 191.055 93.6253ZM145.1 110.922L145.969 110.27C147.488 111.573 149.153 112.297 150.094 112.297C151.107 112.297 152.41 111.645 154.146 110.125C157.837 106.941 164.133 99.7043 166.232 97.4608C168.114 95.5069 169.778 94.2766 171.877 94.2766C174.337 94.2766 176.509 95.3621 179.041 97.7503C188.956 106.941 199.232 116.349 206.325 121.126C209.075 122.862 210.667 125.974 210.667 128.941C210.667 131.33 209.292 132.922 207.121 132.922C204.371 132.922 200.752 130.099 195.107 124.165C190.765 119.461 179.476 106.869 175.351 102.816C173.976 101.369 172.962 100.862 172.166 100.862C171.443 100.862 170.719 101.369 169.633 102.744C167.318 105.711 162.324 113.31 160.153 116.856C158.561 119.244 157.403 121.343 154.798 121.343C151.975 121.343 148.429 119.099 146.548 116.422C145.535 114.974 145.173 113.31 145.1 110.922ZM220.075 103.033C222.246 105.856 223.549 107.81 227.384 107.81C235.128 107.81 256.983 106.362 261.325 106C266.174 105.639 269.431 104.987 271.24 104.987C275.582 104.987 279.345 107.231 279.345 110.343C279.345 112.441 277.536 113.454 274.497 113.454C271.674 113.454 269.141 113.237 264.003 113.237C258.503 113.237 242.365 114.323 236.792 114.902C231.582 115.481 230.496 117.145 227.746 117.145C224.851 117.145 220.437 112.514 219.062 108.968C218.483 107.303 218.627 105.204 218.917 103.395L220.075 103.033ZM336.261 91.9608C334.886 89.9344 332.86 87.112 329.676 83.9278L330.472 82.9146C334.525 84.2896 338.071 85.737 340.169 87.8357C341.761 89.3555 342.34 90.5858 342.34 92.0331C342.34 93.5529 341.182 94.7108 339.59 94.7108C338.432 94.7108 337.419 93.6976 336.261 91.9608ZM343.426 85.5923C342.123 83.8554 340.386 81.612 336.768 78.3554L337.419 77.4146C341.617 78.4277 344.873 79.8751 346.972 81.3949C348.709 82.8423 349.577 84.2173 349.577 85.9541C349.577 87.4739 348.564 88.5594 347.117 88.5594C345.669 88.5594 344.801 87.4015 343.426 85.5923ZM300.221 85.3028L300.728 84.0002C303.116 84.1449 306.518 84.362 310.932 85.3028C315.926 86.6778 320.195 89.1384 320.195 93.6976C320.195 95.6516 318.603 97.5332 316.649 97.5332C313.176 97.5332 311.801 94.7832 307.965 91.2371C305.215 88.7042 302.537 86.7502 300.221 85.3028ZM348.926 95.5069L350.156 96.3029C342.919 111.066 326.636 125.83 310.787 135.165C308.472 136.613 307.458 138.928 304.998 138.928C301.886 138.928 297.11 135.672 294.939 132.415C293.781 130.534 293.202 127.132 293.202 125.251L294.142 124.672C295.662 126.336 298.123 129.159 300.945 129.159C309.268 129.159 336.623 110.415 348.926 95.5069ZM291.103 100.428L291.537 99.1977C294.504 99.4148 297.327 99.7043 301.162 100.645C306.373 101.875 311.366 104.77 311.366 109.185C311.366 110.922 310.498 113.165 307.458 113.165C304.057 113.165 302.682 109.981 299.208 107.014C295.952 103.902 293.274 101.731 291.103 100.428Z" fill="white"/>
</svg>
